<svg width="800" height="300" viewBox="0 0 800 300" fill="none" xmlns="http://www.w3.org/2000/svg">
<path d="M226.585 151.363L142.485 67C123.447 86.0974 123.447 117.06 142.485 136.158L192.114 185.942L226.585 151.363Z" fill="white"/>
<path d="M192.111 116.811L161.31 85.9144C168.125 94.3652 172.23 105.104 172.23 116.811C172.23 128.519 168.152 139.203 161.364 147.654L142.476 166.601C123.418 185.719 123.418 216.651 142.476 235.769L226.587 151.395L192.111 116.811Z" fill="url(#paint0_linear_1078_2542)"/>
<path d="M285 113.2H313.912C323.896 113.2 332.216 116.701 338.872 123.704C345.597 130.637 348.96 139.269 348.96 149.6C348.96 159.931 345.597 168.563 338.872 175.496C332.216 182.499 323.896 186 313.912 186H285V113.2ZM299.352 172.272H313.912C320.221 172.272 325.352 170.192 329.304 166.032C333.256 161.733 335.232 156.256 335.232 149.6C335.232 142.875 333.256 137.432 329.304 133.272C325.352 129.043 320.221 126.928 313.912 126.928H299.352V172.272Z" fill="white"/>
<path d="M412.181 165.512H372.973C374.706 172.029 379.594 175.288 387.637 175.288C392.767 175.288 396.65 173.555 399.285 170.088L410.101 176.328C404.97 183.747 397.413 187.456 387.429 187.456C378.831 187.456 371.933 184.856 366.733 179.656C361.533 174.456 358.933 167.904 358.933 160C358.933 152.235 361.498 145.717 366.629 140.448C371.69 135.179 378.277 132.544 386.389 132.544C394.085 132.544 400.359 135.179 405.213 140.448C410.205 145.717 412.701 152.235 412.701 160C412.701 161.456 412.527 163.293 412.181 165.512ZM372.765 155.112H399.285C398.522 151.715 396.962 149.115 394.605 147.312C392.317 145.509 389.578 144.608 386.389 144.608C382.783 144.608 379.802 145.544 377.445 147.416C375.087 149.219 373.527 151.784 372.765 155.112Z" fill="white"/>
<path d="M446.714 170.4L459.402 134H474.17L454.41 186H439.122L419.362 134H434.13L446.714 170.4Z" fill="white"/>
<path d="M529.623 120.064L491.975 179.136H530.663V186H483.863V179.136L521.511 120.064H484.903V113.2H529.623V120.064Z" fill="white"/>
<path d="M566.127 132.752C573.893 132.752 580.098 135.491 584.743 140.968C589.527 146.376 591.919 152.789 591.919 160.208C591.919 160.555 591.85 161.629 591.711 163.432H546.055C546.749 168.632 548.967 172.792 552.711 175.912C556.455 179.032 561.135 180.592 566.751 180.592C574.655 180.592 580.237 177.645 583.495 171.752L589.527 175.288C587.239 179.032 584.085 181.979 580.063 184.128C576.111 186.208 571.639 187.248 566.647 187.248C558.466 187.248 551.81 184.683 546.679 179.552C541.549 174.421 538.983 167.904 538.983 160C538.983 152.165 541.514 145.683 546.575 140.552C551.637 135.352 558.154 132.752 566.127 132.752ZM566.127 139.408C560.719 139.408 556.178 141.003 552.503 144.192C548.898 147.381 546.749 151.576 546.055 156.776H584.847C584.085 151.229 581.97 146.965 578.503 143.984C574.898 140.933 570.773 139.408 566.127 139.408Z" fill="white"/>
<path d="M612.822 134V142.632C616.011 136.323 621.488 133.168 629.254 133.168V139.824C624.262 139.824 620.275 141.28 617.294 144.192C614.312 147.035 612.822 151.333 612.822 157.088V186H605.958V134H612.822Z" fill="white"/>
<path d="M684.288 179.448C678.95 184.648 672.502 187.248 664.944 187.248C657.248 187.248 650.766 184.648 645.496 179.448C640.227 174.179 637.592 167.696 637.592 160C637.592 152.304 640.227 145.856 645.496 140.656C650.766 135.387 657.248 132.752 664.944 132.752C672.571 132.752 679.019 135.387 684.288 140.656C689.627 145.856 692.297 152.304 692.297 160C692.297 167.627 689.627 174.109 684.288 179.448ZM650.384 174.664C654.336 178.616 659.19 180.592 664.944 180.592C670.699 180.592 675.552 178.616 679.504 174.664C683.456 170.573 685.432 165.685 685.432 160C685.432 154.245 683.456 149.392 679.504 145.44C675.552 141.419 670.699 139.408 664.944 139.408C659.19 139.408 654.336 141.419 650.384 145.44C646.432 149.392 644.456 154.245 644.456 160C644.456 165.685 646.432 170.573 650.384 174.664Z" fill="white"/>
<defs>
<linearGradient id="paint0_linear_1078_2542" x1="278" y1="-44.0001" x2="77.2065" y2="-57.3152" gradientUnits="userSpaceOnUse">
<stop stop-color="#2CC0E0"/>
<stop offset="1" stop-color="#FB35FF"/>
</linearGradient>
</defs>
</svg>
