<svg width="500" height="172" viewBox="0 0 500 172" fill="none" xmlns="http://www.w3.org/2000/svg">
<g clip-path="url(#clip0)">
<path d="M240.074 116.84L243.525 116.49L243.755 123.491C236.086 124.647 228.348 125.282 220.593 125.391C212.039 125.391 205.982 122.914 202.422 117.96C198.862 113.007 197.079 105.306 197.072 94.8588C197.072 74.0376 205.349 63.6236 221.903 63.617C229.904 63.617 235.881 65.8538 239.834 70.3274C243.788 74.801 245.768 81.8314 245.775 91.4186L245.305 98.189H206.102C206.102 104.763 207.289 109.633 209.663 112.8C212.036 115.967 216.176 117.55 222.083 117.55C227.977 117.557 233.974 117.32 240.074 116.84ZM236.864 91.0686C236.864 83.7882 235.697 78.6412 233.364 75.6277C231.031 72.6142 227.247 71.1107 222.013 71.1174C216.746 71.1174 212.786 72.7008 210.133 75.8677C207.479 79.0346 206.106 84.1015 206.012 91.0686H236.864Z" fill="white"/>
<path d="M258.196 125.311V46.4759H267.106V125.311H258.196Z" fill="white"/>
<path d="M323.209 82.7581V112.76C323.209 115.76 330.61 115.61 330.61 115.61L330.15 123.481C323.889 123.481 318.709 124.001 315.599 120.99C308.874 123.981 301.588 125.501 294.228 125.451C288.767 125.451 284.61 123.904 281.757 120.81C278.903 117.717 277.477 113.283 277.477 107.51C277.477 101.729 278.943 97.4723 281.877 94.7388C284.81 92.0053 289.404 90.3386 295.658 89.7385L314.299 87.9484V82.8481C314.299 78.8079 313.429 75.9177 311.689 74.1776C310.741 73.2793 309.619 72.5836 308.393 72.1331C307.167 71.6826 305.862 71.4867 304.558 71.5574H281.157V63.627H304.018C310.752 63.627 315.642 65.1704 318.689 68.2573C321.736 71.3441 323.243 76.1777 323.209 82.7581ZM286.627 106.99C286.627 114.27 289.627 117.91 295.628 117.91C301.047 117.905 306.427 116.982 311.539 115.18L314.269 114.18V94.6288L296.718 96.2989C293.158 96.6123 290.584 97.639 288.997 99.3791C287.417 101.129 286.627 103.659 286.627 106.99Z" fill="white"/>
<path d="M358.022 71.5875C349.394 71.5875 345.077 74.5876 345.071 80.588C345.071 83.3548 346.071 85.315 348.071 86.4684C350.071 87.6218 354.561 88.8218 361.542 90.0686C368.595 91.302 373.596 93.0254 376.543 95.2389C379.489 97.4523 380.953 101.609 380.933 107.71C380.933 113.81 378.976 118.284 375.063 121.13C371.149 123.977 365.425 125.404 357.892 125.411C352.981 125.411 336.6 123.591 336.6 123.591L337.07 115.87C346.491 116.78 353.301 117.45 357.892 117.45C362.482 117.45 365.992 116.72 368.402 115.25C370.812 113.78 372.032 111.33 372.032 107.89C372.032 104.449 371.032 102.109 368.942 100.889C366.852 99.6691 362.362 98.4891 355.401 97.389C348.441 96.2889 343.481 94.6488 340.55 92.5187C337.62 90.3886 336.16 86.4184 336.16 80.638C336.16 74.8577 338.16 70.5774 342.271 67.8072C346.381 65.0371 351.441 63.647 357.541 63.647C362.362 63.647 379.123 64.8771 379.123 64.8771V72.6475C370.282 72.2275 363.022 71.5875 358.022 71.5875Z" fill="white"/>
<path d="M423.875 72.5375H405.024V100.929C405.024 107.743 405.521 112.217 406.514 114.35C407.514 116.49 409.855 117.56 413.585 117.56L424.155 116.84L424.745 124.211C420.747 124.949 416.699 125.387 412.635 125.521C406.454 125.521 402.177 124.014 399.804 121C397.43 117.987 396.24 112.247 396.234 103.779V72.5375H387.803V64.8171H396.234V46.646H405.024V64.8171H423.915L423.875 72.5375Z" fill="white"/>
<path d="M436.256 56.8766V46.536H445.167V56.8766H436.256ZM436.256 125.311V65.1871H445.167V125.311H436.256Z" fill="white"/>
<path d="M483.759 63.627C488.209 63.8196 492.642 64.3006 497.03 65.0671L499.88 65.4171L499.52 72.6675C494.874 72.0769 490.201 71.7197 485.519 71.5974C478.785 71.5974 474.212 73.2009 471.798 76.4077C469.385 79.6146 468.178 85.555 468.178 94.2288C468.178 102.896 469.305 108.933 471.558 112.34C473.812 115.747 478.505 117.45 485.639 117.45L499.64 116.38L500 123.741C494.54 124.671 489.024 125.229 483.489 125.411C474.228 125.411 467.835 123.034 464.308 118.28C460.781 113.527 459.017 105.526 459.017 94.2788C459.017 82.9848 460.918 75.0643 464.718 70.5174C468.518 65.9704 474.865 63.6736 483.759 63.627Z" fill="white"/>
<path d="M172.4 90.0686C172.418 83.0778 170.277 76.2521 166.269 70.5242C162.261 64.7963 156.583 60.4456 150.009 58.0666C150.607 55.016 150.908 51.9147 150.909 48.8061C150.933 38.4932 147.682 28.4391 141.625 20.0926C135.567 11.7461 127.016 5.53837 117.204 2.36404C107.392 -0.810302 96.8253 -0.787306 87.027 2.42971C77.2287 5.64672 68.7048 11.8916 62.6838 20.2644C58.2409 16.8216 52.7968 14.9206 47.1765 14.8495C41.5562 14.7784 36.0659 16.5409 31.5372 19.8702C27.0085 23.1994 23.6882 27.914 22.0794 33.2996C20.4706 38.6852 20.6609 44.4484 22.6214 49.7161C16.022 52.1199 10.3167 56.4865 6.27258 62.229C2.22851 67.9715 0.0395798 74.8146 9.30582e-05 81.8381C-0.0163313 88.8601 2.14174 95.715 6.17788 101.461C10.214 107.207 15.9303 111.563 22.5414 113.93C21.9568 116.982 21.6588 120.083 21.6514 123.191C21.6555 133.467 24.9194 143.477 30.9734 151.781C37.0274 160.084 45.5595 166.254 55.342 169.401C65.1246 172.548 75.6533 172.51 85.4133 169.294C95.1733 166.078 103.662 159.849 109.657 151.502C114.086 154.963 119.524 156.883 125.144 156.971C130.764 157.059 136.259 155.31 140.795 151.99C145.33 148.67 148.658 143.96 150.272 138.576C151.887 133.192 151.699 127.428 149.739 122.16C156.341 119.765 162.052 115.406 166.103 109.669C170.154 103.932 172.352 97.0917 172.4 90.0686Z" fill="white"/>
<path d="M67.7742 74.0675L105.506 91.2686L143.559 57.8666C145.491 48.2501 144.042 38.2612 139.455 29.5909C134.868 20.9207 127.426 14.1018 118.389 10.2885C109.352 6.47526 99.2745 5.90199 89.8631 8.66575C80.4518 11.4295 72.2846 17.3605 66.7441 25.4546L60.4138 58.2966L67.7742 74.0675Z" fill="#FEC514"/>
<path d="M28.7319 113.97C28.1767 116.766 27.8986 119.61 27.9018 122.461C27.8976 131.583 30.8185 140.467 36.2356 147.807C41.6527 155.148 49.2805 160.558 57.9991 163.243C66.7177 165.929 76.0676 165.748 84.6758 162.727C93.2841 159.707 100.697 154.006 105.827 146.462L112.107 113.73L103.716 97.7291L65.8441 80.428L28.7319 113.97Z" fill="#00BFB3"/>
<path d="M28.4917 48.686L54.3432 54.7864L60.0036 25.3946C56.4861 22.7384 52.2039 21.2909 47.7962 21.2683C43.3885 21.2456 39.0916 22.649 35.547 25.2689C32.0024 27.8889 29.4001 31.5848 28.1285 35.8052C26.857 40.0256 26.9844 44.544 28.4917 48.686Z" fill="#F04E98"/>
<path d="M26.2518 54.8464C20.6604 56.6893 15.7766 60.2178 12.2709 64.9475C8.76524 69.6773 6.80965 75.3762 6.67267 81.2619C6.53569 87.1476 8.22404 92.9314 11.5059 97.819C14.7877 102.707 19.5021 106.459 25.0018 108.56L61.2839 75.7777L54.6235 61.5468L26.2518 54.8464Z" fill="#1BA9F5"/>
<path d="M112.457 146.442C115.968 149.095 120.243 150.541 124.643 150.564C129.044 150.587 133.334 149.186 136.872 146.57C140.411 143.954 143.008 140.264 144.276 136.05C145.545 131.836 145.416 127.325 143.909 123.191L118.077 117.19L112.457 146.442Z" fill="#93C90E"/>
<path d="M117.707 110.38L146.149 117.07C151.826 115.157 156.764 111.519 160.274 106.664C163.785 101.809 165.692 95.9794 165.73 89.9886C165.725 84.2149 163.964 78.5794 160.681 73.83C157.398 69.0806 152.748 65.4419 147.349 63.397L110.157 95.9489L117.707 110.38Z" fill="#0077CC"/>
</g>
<defs>
<clipPath id="clip0">
<rect width="500" height="171.734" fill="white"/>
</clipPath>
</defs>
</svg>
