<svg width="1447" height="348" viewBox="0 0 1447 348" fill="none" xmlns="http://www.w3.org/2000/svg">
<path d="M1366.39 263.626C1337.09 263.626 1316.26 255.604 1303.91 239.561C1291.35 223.518 1285.08 201.397 1285.08 173.197C1285.08 143.702 1291.45 121.331 1304.21 106.086C1316.86 90.8398 1337.39 83.2169 1365.79 83.2169C1395.08 83.2169 1415.81 90.8398 1427.97 106.086C1440.02 121.531 1446.05 143.802 1446.05 172.898C1446.05 176.984 1445.8 180.72 1445.31 184.108H1316.31V161.987H1409.58C1408.69 142.157 1405 128.207 1398.52 120.136C1390.75 111.267 1379.89 106.833 1365.94 106.833C1352.29 106.833 1341.23 111.566 1332.76 121.032C1324.29 130.399 1320.05 147.837 1320.05 173.346C1320.05 197.66 1324.19 214.799 1332.46 224.764C1340.63 234.928 1351.94 240.01 1366.39 240.01V263.626ZM1366.39 240.01C1374.66 240.01 1381.83 238.714 1387.91 236.123C1393.99 233.433 1398.67 228.949 1401.96 222.671C1405.25 216.294 1407.79 209.119 1409.58 201.148L1442.02 210.116C1440.22 222.073 1436.09 232.088 1429.61 240.159C1423.13 248.33 1414.91 254.259 1404.95 257.946C1395.08 261.732 1382.23 263.626 1366.39 263.626V240.01Z" fill="#2A2A2A"/>
<path d="M1237.68 262.131V27.4651H1273.7V262.131H1237.68Z" fill="#2A2A2A"/>
<path d="M1178.84 262.131V84.8615H1215.02V262.131H1178.84ZM1178.84 35.0885H1215.02V64.2349H1178.84V35.0885Z" fill="#2A2A2A"/>
<path d="M1122.35 264.223C1108.5 264.223 1096.84 261.234 1087.38 255.255C1078.01 249.177 1073.33 238.116 1073.33 222.073V110.121H1032.07V85.0104H1073.33V44.8033H1109.5V85.0104H1166.89V110.121H1109.5V213.852C1109.5 224.315 1111.69 231.241 1116.07 234.629C1120.46 238.016 1126.59 239.71 1134.46 239.71C1141.73 239.71 1148.86 238.515 1155.83 236.123V260.337C1145.17 262.928 1134.01 264.223 1122.35 264.223Z" fill="#2A2A2A"/>
<path d="M877.439 328.345V85.0104H905.54L913.461 114.456V328.345H877.439ZM969.961 263.177C950.131 263.177 933.141 258.344 918.992 248.679C904.842 238.913 897.767 228.6 897.767 217.739L913.461 199.802C913.461 210.066 917.796 219.084 926.465 226.856C935.234 234.529 945.597 238.365 957.555 238.365C970.309 238.365 980.274 233.831 987.448 224.764C994.623 215.596 998.21 198.457 998.21 173.346C998.21 148.335 994.623 131.296 987.448 122.228C980.274 113.061 970.309 108.477 957.555 108.477C945.597 108.477 935.234 112.313 926.465 119.986C917.796 127.659 913.461 136.527 913.461 146.591L897.767 129.104C897.767 118.143 904.842 107.779 918.992 98.0141C933.141 88.2489 950.131 83.3662 969.961 83.3662C991.982 83.3662 1008.27 90.9891 1018.84 106.235C1029.4 121.481 1034.68 143.801 1034.68 173.197C1034.68 202.493 1029.4 224.813 1018.84 240.159C1008.27 255.504 991.982 263.177 969.961 263.177Z" fill="#2A2A2A"/>
<path d="M786.961 263.626C757.665 263.626 736.84 255.604 724.483 239.561C711.928 223.518 705.65 201.397 705.65 173.197C705.65 143.702 712.028 121.331 724.782 106.086C737.437 90.8398 757.964 83.2169 786.363 83.2169C815.659 83.2169 836.386 90.8398 848.542 106.086C860.6 121.531 866.628 143.802 866.628 172.898C866.628 176.984 866.379 180.72 865.881 184.108H736.889V161.987H830.158C829.261 142.157 825.574 128.207 819.097 120.136C811.325 111.267 800.463 106.833 786.513 106.833C772.861 106.833 761.801 111.566 753.331 121.032C744.861 130.399 740.626 147.837 740.626 173.346C740.626 197.66 744.761 214.799 753.032 224.764C761.203 234.928 772.513 240.01 786.961 240.01V263.626ZM786.961 240.01C795.232 240.01 802.406 238.714 808.485 236.123C814.563 233.433 819.247 228.949 822.535 222.671C825.823 216.294 828.364 209.119 830.158 201.148L862.592 210.116C860.799 222.073 856.664 232.088 850.187 240.159C843.71 248.33 835.489 254.259 825.524 257.946C815.659 261.732 802.805 263.626 786.961 263.626V240.01Z" fill="#2A2A2A"/>
<path d="M664.781 168.862C664.781 145.147 661.991 129.203 656.41 121.032C650.83 112.762 642.709 108.626 632.047 108.626C619.89 108.626 610.274 112.762 603.2 121.032C596.224 129.203 592.737 138.47 592.737 148.833L578.836 139.566C578.836 123.922 584.865 110.669 596.922 99.8078C609.079 88.8467 625.221 83.3662 645.35 83.3662C666.475 83.3662 681.023 90.2418 688.995 103.993C696.966 117.644 700.952 139.267 700.952 168.862H664.781ZM556.864 262.131V85.0104H584.964L592.886 118.192V262.131H556.864Z" fill="#2A2A2A"/>
<path d="M462.514 331.783C442.485 331.783 425.496 327.299 411.545 318.331C397.595 309.462 389.773 294.167 388.079 272.444H423.353C424.15 281.113 426.193 288.088 429.481 293.37C432.869 298.651 437.503 302.487 443.382 304.879C449.361 307.37 456.137 308.615 463.71 308.615C476.265 308.615 486.329 305.327 493.902 298.75C501.575 292.274 505.411 279.07 505.411 259.141V120.883L514.828 85.0104H541.583V255.704C541.583 275.134 537.946 290.38 530.672 301.441C523.497 312.601 514.38 320.423 503.319 324.907C492.358 329.491 478.756 331.783 462.514 331.783ZM449.66 263.177C427.638 263.177 411.196 255.604 400.335 240.458C389.573 225.212 384.192 202.792 384.192 173.197C384.192 143.602 389.523 121.232 400.186 106.085C410.848 90.9393 427.239 83.3662 449.361 83.3662C469.19 83.3662 486.08 88.3983 500.031 98.4626C514.081 108.427 521.106 118.89 521.106 129.851L505.262 146.591C505.262 136.527 500.977 127.659 492.408 119.986C483.838 112.313 473.575 108.477 461.617 108.477C448.962 108.477 438.948 113.011 431.574 122.079C424.3 131.047 420.663 148.136 420.663 173.346C420.663 198.557 424.3 215.696 431.574 224.764C438.948 233.831 448.962 238.365 461.617 238.365C473.575 238.365 483.838 234.479 492.408 226.707C500.977 218.934 505.262 209.966 505.262 199.802L521.255 217.738C521.255 228.899 514.28 239.262 500.33 248.828C486.479 258.394 469.589 263.177 449.66 263.177Z" fill="#2A2A2A"/>
<path d="M198.956 41.25L138.085 96.0596L96.0273 132.028L150.156 182.659L206.836 134.188L162.945 93.1328L209.556 51.165L300.259 136.007L148.007 266.213L2.60352 130.207L154.856 0L198.956 41.25Z" fill="#2A2A2A"/>
<rect width="195.797" height="69.1071" transform="matrix(0.75471 -0.656059 0 1 155.689 278.679)" fill="#2A2A2A"/>
<rect width="195.797" height="69.1071" transform="matrix(0.731354 0.681998 0 1 0 144.88)" fill="#2A2A2A"/>
</svg>
