<svg width="711" height="88" viewBox="0 0 711 88" fill="none" xmlns="http://www.w3.org/2000/svg">
<path d="M6.75655e-07 15.6809L0 0.181396H15.4995L15.4995 15.6809H6.75655e-07Z" fill="#181818"/>
<path d="M28.4692 33.7414L28.4692 18.2419H43.9687L43.9687 33.7414H28.4692Z" fill="#181818"/>
<path d="M56.8936 51.8034L56.8936 36.304H72.393L72.393 51.8034H56.8936Z" fill="#181818"/>
<path d="M28.4692 69.8186L28.4692 54.3191H43.9687L43.9687 69.8186H28.4692Z" fill="#181818"/>
<path d="M6.75655e-07 87.8579L0 72.3584H15.4995L15.4995 87.8579H6.75655e-07Z" fill="#181818"/>
<path d="M6.75655e-07 51.8034L0 36.304H15.4995L15.4995 51.8034H6.75655e-07Z" fill="#181818"/>
<path d="M118.899 87.9236V0.217285H135.921V72.8778H185.815V87.9236H118.899Z" fill="#181818"/>
<path d="M195.932 87.9236V0.217285H212.954V87.9236H195.932Z" fill="#181818"/>
<path d="M291.653 0.217285H310.34L277.221 87.9236H255.142L221.283 0.217285H240.34L266.551 70.1866L291.653 0.217285Z" fill="#181818"/>
<path d="M319.038 87.9236V51.7689H336.06V36.3583H319.038V0.217285H385.955V15.2631H336.06V36.3583H378.369V51.7689H336.06V72.8778H387.25V87.9236H319.038Z" fill="#181818"/>
<path d="M400.019 87.9236V0.217285H439.798C457.005 0.217285 468.23 8.87584 468.23 26.1602C468.23 41.5159 457.005 51.8608 439.798 51.8608H417.041V87.9236H400.019ZM417.041 36.2679H437.886C446.521 36.2679 451.146 32.125 451.146 25.9779C451.146 19.3608 446.521 15.2631 437.886 15.2631H417.041V36.2679Z" fill="#181818"/>
<path d="M479.889 87.9236V51.7689H496.911V36.3583H479.889V0.217285H546.805V15.2631H496.911V36.3583H539.219V51.7689H496.911V72.8778H548.1V87.9236H479.889Z" fill="#181818"/>
<path d="M560.869 87.9236V51.7689H577.891V36.3583H560.869V0.217285H627.785V15.2631H577.891V36.3583H620.2V51.7689H577.891V72.8778H629.081V87.9236H560.869Z" fill="#181818"/>
<path d="M641.85 87.9236V0.217285H682.925C698.488 0.220471 710.061 7.78148 710.061 22.0647C710.061 32.9453 705.127 39.5627 695.013 43.2936C704.202 43.2936 708.766 47.4526 708.766 55.7095V87.9236H691.744V59.9297C691.744 53.63 689.894 51.7951 683.541 51.7951H658.872V87.9236H641.85ZM658.872 36.3257H677.867C687.797 36.3257 692.977 33.0368 692.977 25.8533C692.977 18.6698 687.982 15.2631 677.867 15.2631H658.872V36.3257Z" fill="#181818"/>
</svg>
