<svg width="710" height="112" viewBox="0 0 710 112" fill="none" xmlns="http://www.w3.org/2000/svg">
<g clip-path="url(#clip0_337_17498)">
<path d="M81.306 106.901L4.75431 96.0294L0.188965 99.9861L81.306 111.503L114.542 82.6743L109.964 82.0291L81.306 106.901Z" fill="white"/>
<path d="M81.306 88.2043L114.542 59.3757L109.964 58.7305L81.306 83.6025L47.8024 78.8423L16.2955 74.3622L4.75431 72.7187L0.188965 76.6875L11.7302 78.3188L0.188965 88.3382L81.306 99.8551L114.542 71.0265L109.976 70.3812L81.306 95.2532L42.884 89.787L49.8599 83.7364L81.306 88.2043Z" fill="white"/>
<path d="M81.306 71.944L4.75431 61.0724L0.188965 65.0412L81.306 76.5581L114.542 47.7295L109.964 47.0842L81.306 71.944Z" fill="white"/>
<path d="M109.976 23.7629L81.306 48.6349L4.75431 37.7633L0.188965 41.72L45.5989 48.1723L38.6231 54.2229L4.75431 49.4141L0.188965 53.3707L81.306 64.8997L114.542 36.0711L102.988 34.4276L114.542 24.4204L109.976 23.7629Z" fill="white"/>
<path d="M114.542 12.771L33.4247 1.24194L0.188965 30.0706L81.306 41.5874L114.542 12.771Z" fill="white"/>
</g>
<path d="M176.136 66.1257C176.301 69.912 177.947 72.9986 181.075 75.3857C184.285 77.7727 188.401 78.9662 193.422 78.9662C197.867 78.9662 201.447 78.1019 204.163 76.3734C206.962 74.5625 208.361 72.2167 208.361 69.3358C208.361 66.8665 207.703 64.9733 206.386 63.6563C205.069 62.3393 203.34 61.4339 201.2 60.9401C199.142 60.4462 196.179 59.9523 192.311 59.4585C186.878 58.8 182.433 57.9357 178.976 56.8657C175.519 55.7956 172.721 54.1082 170.58 51.8035C168.44 49.4165 167.37 46.1652 167.37 42.0497C167.37 38.3457 168.399 35.0532 170.457 32.1723C172.597 29.2914 175.478 27.069 179.1 25.5051C182.721 23.8589 186.796 23.0358 191.323 23.0358C198.731 23.0358 204.74 24.7643 209.349 28.2214C214.041 31.6785 216.634 36.6171 217.127 43.0374H207.003C206.592 39.745 204.987 37.0287 202.188 34.8886C199.389 32.7485 195.891 31.6785 191.693 31.6785C187.413 31.6785 183.956 32.5839 181.322 34.3947C178.688 36.1233 177.371 38.428 177.371 41.3089C177.371 43.4489 177.988 45.0952 179.223 46.2475C180.458 47.3999 182.022 48.1818 183.915 48.5934C185.89 49.005 188.854 49.4577 192.804 49.9515C198.319 50.61 202.846 51.5154 206.386 52.6678C210.007 53.8201 212.888 55.6721 215.028 58.2238C217.251 60.7754 218.362 64.2325 218.362 68.595C218.362 72.3813 217.251 75.7149 215.028 78.5958C212.806 81.4767 209.802 83.6991 206.015 85.263C202.229 86.8269 198.031 87.6088 193.422 87.6088C185.191 87.6088 178.565 85.7157 173.544 81.9294C168.605 78.1431 166.095 72.8752 166.012 66.1257H176.136Z" fill="white"/>
<path d="M256.64 23.1593C262.484 23.1593 267.669 24.4351 272.196 26.9867C276.806 29.5384 280.386 33.2424 282.938 38.0987C285.572 42.9551 286.889 48.7169 286.889 55.3841C286.889 61.722 285.572 67.3192 282.938 72.1755C280.386 77.0319 276.806 80.8182 272.196 83.5345C267.587 86.2507 262.401 87.6088 256.64 87.6088C251.536 87.6088 247.174 86.7034 243.552 84.8926C239.93 82.9994 237.091 80.4478 235.033 77.2377V111.561H224.909V23.9001H233.675L235.033 34.0243C240.301 26.781 247.503 23.1593 256.64 23.1593ZM255.652 78.5958C261.908 78.5958 266.928 76.4557 270.715 72.1755C274.583 67.813 276.518 62.2159 276.518 55.3841C276.518 48.5522 274.583 42.9962 270.715 38.7161C266.928 34.3536 261.908 32.1723 255.652 32.1723C251.619 32.1723 247.997 33.1601 244.787 35.1355C241.659 37.0287 239.231 39.745 237.502 43.2843C235.774 46.7414 234.909 50.6923 234.909 55.1371C234.909 59.6642 235.774 63.7386 237.502 67.3603C239.231 70.8997 241.659 73.6571 244.787 75.6326C247.997 77.6081 251.619 78.5958 255.652 78.5958Z" fill="white"/>
<path d="M291.297 55.3841C291.297 48.9638 292.532 43.3255 295.001 38.4691C297.553 33.6128 301.092 29.8676 305.619 27.2337C310.146 24.5174 315.332 23.1593 321.176 23.1593C326.938 23.1593 332.041 24.3528 336.486 26.7398C340.931 29.1268 344.429 32.5839 346.981 37.111C349.532 41.6381 350.89 46.9472 351.055 53.0382C351.055 53.9436 350.973 55.3841 350.808 57.3595H301.915V58.2238C302.08 64.3971 303.973 69.3358 307.595 73.0398C311.216 76.7438 315.949 78.5958 321.793 78.5958C326.32 78.5958 330.148 77.4846 333.276 75.2622C336.486 72.9575 338.626 69.7885 339.696 65.7553H349.944C348.709 72.1755 345.622 77.4434 340.684 81.559C335.745 85.5922 329.695 87.6088 322.534 87.6088C316.278 87.6088 310.805 86.2919 306.113 83.6579C301.421 80.9417 297.758 77.1553 295.125 72.299C292.573 67.3603 291.297 61.722 291.297 55.3841ZM340.56 48.9638C340.066 43.6136 338.05 39.4569 334.51 36.4937C331.053 33.5305 326.65 32.0489 321.299 32.0489C316.525 32.0489 312.328 33.6128 308.706 36.7406C305.084 39.8684 303.026 43.9428 302.533 48.9638H340.56Z" fill="white"/>
<path d="M425.193 77.6081V86.868H411.007C406.973 86.868 404.093 86.0449 402.364 84.3987C400.635 82.7525 399.73 80.3243 399.648 77.1142C394.791 84.1106 387.754 87.6088 378.535 87.6088C371.538 87.6088 365.9 85.9626 361.62 82.6702C357.422 79.3777 355.323 74.8918 355.323 69.2123C355.323 62.8744 357.463 58.018 361.743 54.6433C366.106 51.2685 372.403 49.5811 380.634 49.5811H399.154V45.2598C399.154 41.1442 397.755 37.9341 394.956 35.6294C392.24 33.3247 388.412 32.1723 383.474 32.1723C379.111 32.1723 375.489 33.1601 372.609 35.1355C369.81 37.0287 368.081 39.5803 367.423 42.7905H357.299C358.039 36.6171 360.756 31.8019 365.447 28.3449C370.221 24.8878 376.395 23.1593 383.967 23.1593C392.034 23.1593 398.248 25.1347 402.611 29.0857C407.056 32.9543 409.278 38.5514 409.278 45.8771V73.0398C409.278 76.0853 410.677 77.6081 413.476 77.6081H425.193ZM399.154 58.1003H379.646C370.263 58.1003 365.571 61.5985 365.571 68.595C365.571 71.7228 366.806 74.2333 369.275 76.1264C371.744 78.0196 375.078 78.9662 379.276 78.9662C385.449 78.9662 390.305 77.3611 393.845 74.151C397.384 70.8585 399.154 66.5372 399.154 61.187V58.1003Z" fill="white"/>
<path d="M420.131 0.441406H430.255V57.7299L462.233 23.9001H474.333L450.133 49.7046L476.061 86.868H463.838L442.849 56.9891L430.255 70.2001V86.868H420.131V0.441406Z" fill="white"/>
<path d="M473.135 55.3841C473.135 48.9638 474.37 43.3255 476.839 38.4691C479.391 33.6128 482.931 29.8676 487.458 27.2337C491.985 24.5174 497.17 23.1593 503.014 23.1593C508.776 23.1593 513.879 24.3528 518.324 26.7398C522.769 29.1268 526.267 32.5839 528.819 37.111C531.371 41.6381 532.729 46.9472 532.893 53.0382C532.893 53.9436 532.811 55.3841 532.646 57.3595H483.754V58.2238C483.918 64.3971 485.811 69.3358 489.433 73.0398C493.055 76.7438 497.788 78.5958 503.632 78.5958C508.159 78.5958 511.986 77.4846 515.114 75.2622C518.324 72.9575 520.464 69.7885 521.534 65.7553H531.782C530.547 72.1755 527.461 77.4434 522.522 81.559C517.583 85.5922 511.534 87.6088 504.373 87.6088C498.117 87.6088 492.643 86.2919 487.951 83.6579C483.26 80.9417 479.597 77.1553 476.963 72.299C474.411 67.3603 473.135 61.722 473.135 55.3841ZM522.399 48.9638C521.905 43.6136 519.888 39.4569 516.349 36.4937C512.892 33.5305 508.488 32.0489 503.138 32.0489C498.364 32.0489 494.166 33.6128 490.544 36.7406C486.923 39.8684 484.865 43.9428 484.371 48.9638H522.399Z" fill="white"/>
<path d="M598.401 77.6081V86.868H592.845C588.812 86.868 585.931 86.0449 584.202 84.3987C582.474 82.7525 581.568 80.3243 581.486 77.1142C576.63 84.1106 569.592 87.6088 560.373 87.6088C553.377 87.6088 547.739 85.9626 543.458 82.6702C539.261 79.3777 537.162 74.8918 537.162 69.2123C537.162 62.8744 539.302 58.018 543.582 54.6433C547.944 51.2685 554.241 49.5811 562.472 49.5811H580.992V45.2598C580.992 41.1442 579.593 37.9341 576.794 35.6294C574.078 33.3247 570.251 32.1723 565.312 32.1723C560.95 32.1723 557.328 33.1601 554.447 35.1355C551.648 37.0287 549.92 39.5803 549.261 42.7905H539.137C539.878 36.6171 542.594 31.8019 547.286 28.3449C552.06 24.8878 558.233 23.1593 565.806 23.1593C573.872 23.1593 580.087 25.1347 584.449 29.0857C588.894 32.9543 591.117 38.5514 591.117 45.8771V73.0398C591.117 76.0853 592.516 77.6081 595.314 77.6081H598.401ZM580.992 58.1003H561.485C552.101 58.1003 547.409 61.5985 547.409 68.595C547.409 71.7228 548.644 74.2333 551.113 76.1264C553.583 78.0196 556.916 78.9662 561.114 78.9662C567.287 78.9662 572.144 77.3611 575.683 74.151C579.223 70.8585 580.992 66.5372 580.992 61.187V58.1003Z" fill="white"/>
<path d="M609.147 66.1257C609.312 69.912 610.958 72.9986 614.086 75.3857C617.296 77.7727 621.412 78.9662 626.433 78.9662C630.878 78.9662 634.458 78.1019 637.174 76.3734C639.973 74.5625 641.372 72.2167 641.372 69.3358C641.372 66.8665 640.714 64.9733 639.397 63.6563C638.08 62.3393 636.351 61.4339 634.211 60.9401C632.153 60.4462 629.19 59.9523 625.322 59.4585C619.889 58.8 615.444 57.9357 611.987 56.8657C608.53 55.7956 605.732 54.1082 603.592 51.8035C601.451 49.4165 600.381 46.1652 600.381 42.0497C600.381 38.3457 601.41 35.0532 603.468 32.1723C605.608 29.2914 608.489 27.069 612.111 25.5051C615.732 23.8589 619.807 23.0358 624.334 23.0358C631.742 23.0358 637.751 24.7643 642.36 28.2214C647.052 31.6785 649.645 36.6171 650.138 43.0374H640.014C639.603 39.745 637.998 37.0287 635.199 34.8886C632.4 32.7485 628.902 31.6785 624.704 31.6785C620.424 31.6785 616.967 32.5839 614.333 34.3947C611.699 36.1233 610.382 38.428 610.382 41.3089C610.382 43.4489 611 45.0952 612.234 46.2475C613.469 47.3999 615.033 48.1818 616.926 48.5934C618.901 49.005 621.865 49.4577 625.815 49.9515C631.33 50.61 635.857 51.5154 639.397 52.6678C643.019 53.8201 645.899 55.6721 648.039 58.2238C650.262 60.7754 651.373 64.2325 651.373 68.595C651.373 72.3813 650.262 75.7149 648.039 78.5958C645.817 81.4767 642.813 83.6991 639.026 85.263C635.24 86.8269 631.042 87.6088 626.433 87.6088C618.202 87.6088 611.576 85.7157 606.555 81.9294C601.616 78.1431 599.106 72.8752 599.023 66.1257H609.147Z" fill="white"/>
<path d="M660.918 23.9001L680.302 75.2622L699.069 23.9001H709.81L680.796 97.4862C679.314 101.272 677.997 104.112 676.845 106.005C675.692 107.899 674.252 109.298 672.523 110.203C670.795 111.109 668.49 111.561 665.609 111.561H653.51V102.301H662.523C664.498 102.301 665.98 102.096 666.967 101.684C667.955 101.272 668.737 100.573 669.313 99.5851C669.972 98.6797 670.754 97.1158 671.659 94.8934L674.869 87.3619L650.176 23.9001H660.918Z" fill="white"/>
<defs>
<clipPath id="clip0_337_17498">
<rect width="114.353" height="110.262" fill="white" transform="translate(0.189453 1.23828)"/>
</clipPath>
</defs>
</svg>
