<svg width="715" height="239" viewBox="0 0 715 239" fill="none" xmlns="http://www.w3.org/2000/svg">
<path d="M12.176 179.239V139.055H23.0679L34.9643 179.08L46.8608 139.055H57.7527V179.239H52.4125V139.214L40.516 179.239H29.4127L17.5162 139.214V179.239H12.176ZM78.3728 179.82C69.9659 179.82 64.5729 173.846 64.5729 165.069C64.5729 156.292 69.9659 150.317 78.3728 150.317C86.7796 150.317 92.1198 156.292 92.1198 165.069C92.1198 173.846 86.7796 179.82 78.3728 179.82ZM69.8602 165.069C69.8602 171.731 72.9797 176.014 78.3728 176.014C83.7658 176.014 86.8325 171.731 86.8325 165.069C86.8325 158.407 83.7658 154.124 78.3728 154.124C72.9797 154.124 69.8602 158.407 69.8602 165.069ZM108.9 179.82C102.027 179.82 96.8453 173.793 96.8453 165.069C96.8453 156.345 102.08 150.317 108.9 150.317C114.188 150.317 117.572 153.965 118.893 157.772V139.055H124.075V179.239H118.893V173.053C117.149 177.124 113.13 179.82 108.9 179.82ZM102.133 165.069C102.133 171.731 105.199 176.014 110.592 176.014C115.985 176.014 119.105 171.731 119.105 165.069C119.105 158.407 115.985 154.124 110.592 154.124C105.199 154.124 102.133 158.407 102.133 165.069ZM144.045 179.82C135.479 179.82 130.562 173.581 130.562 165.069C130.562 156.45 135.585 150.317 143.992 150.317C151.923 150.317 157.316 155.922 157.316 164.646C157.316 165.175 157.263 165.915 157.21 166.602H135.797C136.22 172.735 139.339 176.014 144.045 176.014C148.169 176.014 150.337 174.11 151.394 170.938H156.682C155.043 176.965 150.443 179.82 144.045 179.82ZM135.85 162.689H152.029C151.712 157.614 148.645 154.124 143.992 154.124C139.498 154.124 136.484 157.032 135.85 162.689ZM163.752 179.239V150.899H168.934V156.979C170.203 153.014 173.005 150.317 178.239 150.317V155.446H176.653C171.472 155.446 168.934 157.085 168.934 162.161V179.239H163.752ZM183.476 179.239V150.899H188.658V156.662C189.927 153.331 192.676 150.317 197.541 150.317C203.938 150.317 207.375 155.234 207.375 161.579V161.685V179.239H202.193V162.478V162.372C202.193 156.609 199.55 154.124 195.426 154.124C191.302 154.124 188.658 156.662 188.658 162.478V179.239H183.476ZM238.577 179.239C233.66 179.239 229.8 176.859 229.8 171.466V171.361V154.811H223.825V150.899H229.8V144.184H234.981V150.899H242.172V154.811H234.981V171.361V171.466C234.981 174.48 236.515 175.326 239.105 175.326H242.278V179.239H238.577ZM259.35 179.82C250.943 179.82 245.55 173.846 245.55 165.069C245.55 156.292 250.943 150.317 259.35 150.317C267.756 150.317 273.097 156.292 273.097 165.069C273.097 173.846 267.756 179.82 259.35 179.82ZM250.837 165.069C250.837 171.731 253.957 176.014 259.35 176.014C264.743 176.014 267.809 171.731 267.809 165.069C267.809 158.407 264.743 154.124 259.35 154.124C253.957 154.124 250.837 158.407 250.837 165.069ZM291.569 179.82C283.162 179.82 277.769 173.846 277.769 165.069C277.769 156.292 283.162 150.317 291.569 150.317C299.976 150.317 305.316 156.292 305.316 165.069C305.316 173.846 299.976 179.82 291.569 179.82ZM283.057 165.069C283.057 171.731 286.176 176.014 291.569 176.014C296.962 176.014 300.029 171.731 300.029 165.069C300.029 158.407 296.962 154.124 291.569 154.124C286.176 154.124 283.057 158.407 283.057 165.069ZM311.787 179.239V139.055H316.968V179.239H311.787ZM325.211 179.239V150.899H330.393V179.239H325.211ZM325 146.034V139.055H330.604V146.034H325ZM338.636 179.239V150.899H343.818V156.662C345.087 153.331 347.836 150.317 352.7 150.317C359.098 150.317 362.535 155.234 362.535 161.579V161.685V179.239H357.353V162.478V162.372C357.353 156.609 354.71 154.124 350.586 154.124C346.461 154.124 343.818 156.662 343.818 162.478V179.239H338.636ZM383.079 190.184C376.259 190.184 370.866 186.958 370.231 180.772H375.519C375.994 184.473 379.273 186.377 383.079 186.377C387.415 186.377 390.852 184.103 390.852 179.45V172.471C389.107 176.489 385.089 179.08 380.859 179.08C373.985 179.08 368.804 173.423 368.804 164.699C368.804 155.975 374.038 150.317 380.859 150.317C386.146 150.317 389.53 153.807 390.852 157.614V150.899H396.033V179.345C396.033 186.905 389.689 190.184 383.079 190.184ZM374.091 164.699C374.091 171.361 377.158 175.273 382.551 175.273C387.944 175.273 391.063 171.361 391.063 164.699C391.063 158.037 387.944 154.124 382.551 154.124C377.158 154.124 374.091 158.037 374.091 164.699ZM418.988 146.933C418.988 141.487 422.795 139.055 427.765 139.055H431.466V142.968H428.293C425.703 142.968 424.169 143.814 424.169 146.933V150.899H431.466V154.811H424.169V179.239H418.988V154.811H413.119V150.899H418.988V146.933ZM447.4 179.82C438.994 179.82 433.601 173.846 433.601 165.069C433.601 156.292 438.994 150.317 447.4 150.317C455.807 150.317 461.147 156.292 461.147 165.069C461.147 173.846 455.807 179.82 447.4 179.82ZM438.888 165.069C438.888 171.731 442.007 176.014 447.4 176.014C452.793 176.014 455.86 171.731 455.86 165.069C455.86 158.407 452.793 154.124 447.4 154.124C442.007 154.124 438.888 158.407 438.888 165.069ZM467.618 179.239V150.899H472.799V156.979C474.068 153.014 476.871 150.317 482.105 150.317V155.446H480.519C475.337 155.446 472.799 157.085 472.799 162.161V179.239H467.618ZM504.686 189.602L509.233 176.119H504.21L494.376 150.899H499.716L509.392 175.643L517.693 150.899H523.086L510.079 189.602H504.686ZM539.515 179.82C531.109 179.82 525.715 173.846 525.715 165.069C525.715 156.292 531.109 150.317 539.515 150.317C547.922 150.317 553.262 156.292 553.262 165.069C553.262 173.846 547.922 179.82 539.515 179.82ZM531.003 165.069C531.003 171.731 534.122 176.014 539.515 176.014C544.908 176.014 547.975 171.731 547.975 165.069C547.975 158.407 544.908 154.124 539.515 154.124C534.122 154.124 531.003 158.407 531.003 165.069ZM569.144 179.82C562.746 179.82 559.415 174.903 559.415 168.558V168.453V150.899H564.597V167.66V167.765C564.597 173.476 567.135 176.014 571.259 176.014C575.383 176.014 577.868 173.423 577.868 167.66V150.899H583.05V179.239H577.868V173.581C576.652 176.807 573.85 179.82 569.144 179.82ZM591.281 179.239V150.899H596.463V156.979C597.732 153.014 600.534 150.317 605.768 150.317V155.446H604.182C599.001 155.446 596.463 157.085 596.463 162.161V179.239H591.281ZM617.625 179.239L632.059 139.055H643.004L657.438 179.239H651.728L647.392 167.078H627.671L623.335 179.239H617.625ZM629.362 162.319H645.7L637.558 139.267L629.362 162.319ZM662.609 179.239V139.055H677.413C686.93 139.055 692.693 143.549 692.693 151.639C692.693 159.729 686.93 164.223 677.413 164.223H667.949V179.239H662.609ZM667.949 159.464H677.572C683.758 159.464 687.142 156.926 687.142 151.639C687.142 146.352 683.758 143.814 677.572 143.814H667.949V159.464ZM699.424 179.239V139.055H704.764V179.239H699.424Z" fill="#FBE331"/>
<path d="M18.5394 231.241C12.1035 231.241 7.65241 226.489 7.65241 219.482C7.65241 212.475 12.1035 207.723 18.5394 207.723C24.9754 207.723 29.4264 212.475 29.4264 219.482C29.4264 226.489 24.9754 231.241 18.5394 231.241ZM10.8102 219.482C10.8102 224.895 13.938 228.685 18.5394 228.685C23.1408 228.685 26.2686 224.895 26.2686 219.482C26.2686 214.069 23.1408 210.279 18.5394 210.279C13.938 210.279 10.8102 214.069 10.8102 219.482ZM33.2826 236.805V214.79H36.2299V218.7C36.9818 216.535 38.9065 214.46 41.914 214.46C45.7936 214.46 48.771 217.888 48.771 222.85C48.771 227.813 45.8237 231.241 41.914 231.241C39.508 231.241 37.2223 229.707 36.2299 227.392V236.805H33.2826ZM36.1096 222.85C36.1096 226.64 37.884 229.076 40.9516 229.076C44.0192 229.076 45.7635 226.64 45.7635 222.85C45.7635 219.061 44.0192 216.625 40.9516 216.625C37.884 216.625 36.1096 219.061 36.1096 222.85ZM59.1376 231.241C54.2655 231.241 51.4686 227.692 51.4686 222.85C51.4686 217.948 54.3256 214.46 59.1075 214.46C63.6187 214.46 66.6863 217.647 66.6863 222.61C66.6863 222.911 66.6562 223.332 66.6262 223.723H54.4459C54.6865 227.211 56.4609 229.076 59.1376 229.076C61.4834 229.076 62.7165 227.993 63.318 226.189H66.3254C65.3931 229.617 62.7766 231.241 59.1376 231.241ZM54.476 221.497H63.6789C63.4984 218.61 61.7541 216.625 59.1075 216.625C56.5512 216.625 54.8369 218.279 54.476 221.497ZM70.3472 230.91V214.79H73.2945V218.069C74.0163 216.174 75.5802 214.46 78.3471 214.46C81.9861 214.46 83.9409 217.257 83.9409 220.865V220.926V230.91H80.9936V221.377V221.317C80.9936 218.038 79.4899 216.625 77.1441 216.625C74.7982 216.625 73.2945 218.069 73.2945 221.377V230.91H70.3472ZM86.1834 230.91L94.3937 208.054H100.619L108.83 230.91H105.582L103.115 223.993H91.8976L89.4314 230.91H86.1834ZM92.8599 221.287H102.153L97.5215 208.174L92.8599 221.287ZM111.771 230.91V208.054H120.191C125.605 208.054 128.883 210.61 128.883 215.211C128.883 219.813 125.605 222.369 120.191 222.369H114.808V230.91H111.771ZM114.808 219.662H120.282C123.8 219.662 125.725 218.219 125.725 215.211C125.725 212.204 123.8 210.76 120.282 210.76H114.808V219.662ZM132.711 230.91V208.054H135.749V230.91H132.711ZM140.621 223.632V221.166H150.125V223.632H140.621ZM154.492 230.91V214.79H157.439V218.069C158.161 216.174 159.725 214.46 162.491 214.46C166.13 214.46 168.085 217.257 168.085 220.865V220.926V230.91H165.138V221.377V221.317C165.138 218.038 163.634 216.625 161.288 216.625C158.943 216.625 157.439 218.069 157.439 221.377V230.91H154.492ZM177.095 231.241C174.087 231.241 171.681 229.046 171.681 226.068C171.681 222.309 175.44 221.587 178.328 221.287L182.658 220.835V220.565V220.505C182.658 218.399 181.485 216.625 178.929 216.625C176.673 216.625 175.41 218.008 175.2 219.542H172.192C172.553 216.505 175.14 214.46 178.929 214.46C183.831 214.46 185.606 217.527 185.606 220.535V220.595V230.91H182.658V227.602C181.546 229.858 180.222 231.241 177.095 231.241ZM174.689 226.068C174.689 228.144 176.313 229.286 178.177 229.286C181.155 229.286 182.658 226.941 182.658 224.053V222.85L179.44 223.181C177.215 223.422 174.689 223.723 174.689 226.068ZM196.318 230.91C193.521 230.91 191.326 229.557 191.326 226.489V226.429V217.016H187.927V214.79H191.326V210.971H194.273V214.79H198.363V217.016H194.273V226.429V226.489C194.273 228.204 195.145 228.685 196.619 228.685H198.423V230.91H196.318ZM201.542 230.91V214.79H204.489V230.91H201.542ZM201.422 212.024V208.054H204.609V212.024H201.422ZM212.607 230.91L207.223 214.79H210.231L215.494 230.76L220.727 214.79H223.734L218.351 230.91H212.607ZM232.977 231.241C228.105 231.241 225.308 227.692 225.308 222.85C225.308 217.948 228.165 214.46 232.947 214.46C237.458 214.46 240.526 217.647 240.526 222.61C240.526 222.911 240.496 223.332 240.466 223.723H228.286C228.526 227.211 230.301 229.076 232.977 229.076C235.323 229.076 236.556 227.993 237.158 226.189H240.165C239.233 229.617 236.616 231.241 232.977 231.241ZM228.316 221.497H237.518C237.338 218.61 235.594 216.625 232.947 216.625C230.391 216.625 228.676 218.279 228.316 221.497ZM257.48 230.91L267.585 208.054H272.517L262.412 230.91H257.48ZM289.399 230.91V208.054H297.82C303.233 208.054 306.511 210.61 306.511 215.211C306.511 219.813 303.233 222.369 297.82 222.369H292.436V230.91H289.399ZM292.436 219.662H297.91C301.429 219.662 303.353 218.219 303.353 215.211C303.353 212.204 301.429 210.76 297.91 210.76H292.436V219.662ZM316.185 231.241C311.403 231.241 308.336 227.843 308.336 222.85C308.336 217.858 311.403 214.46 316.185 214.46C320.967 214.46 324.005 217.858 324.005 222.85C324.005 227.843 320.967 231.241 316.185 231.241ZM311.343 222.85C311.343 226.64 313.118 229.076 316.185 229.076C319.253 229.076 320.997 226.64 320.997 222.85C320.997 219.061 319.253 216.625 316.185 216.625C313.118 216.625 311.343 219.061 311.343 222.85ZM327.685 230.91V208.054H330.632V230.91H327.685ZM335.321 230.91V214.79H338.268V230.91H335.321ZM335.201 212.024V208.054H338.389V212.024H335.201ZM348.551 231.241C344.972 231.241 342.175 229.497 341.724 226.189H344.732C345.183 228.474 346.927 229.076 348.551 229.076C351.077 229.076 352.371 228.113 352.371 226.64C352.371 225.196 351.529 224.505 349.123 223.993L346.867 223.512C344.07 222.911 342.145 221.647 342.145 219.181C342.145 216.324 344.972 214.46 348.491 214.46C351.619 214.46 354.295 215.903 355.017 218.82H352.01C351.559 217.407 350.055 216.625 348.491 216.625C346.747 216.625 345.062 217.437 345.062 218.881C345.062 220.174 346.115 220.625 348.28 221.076L350.536 221.557C353.904 222.279 355.288 223.783 355.288 226.279C355.288 229.377 352.521 231.241 348.551 231.241ZM358.905 230.91V208.054H361.852V218.069C362.574 216.174 364.138 214.46 366.905 214.46C370.544 214.46 372.499 217.257 372.499 220.865V220.926V230.91H369.551V221.377V221.317C369.551 218.038 368.048 216.625 365.702 216.625C363.356 216.625 361.852 218.069 361.852 221.377V230.91H358.905ZM383.673 231.241C378.801 231.241 376.004 227.692 376.004 222.85C376.004 217.948 378.861 214.46 383.643 214.46C388.154 214.46 391.222 217.647 391.222 222.61C391.222 222.911 391.192 223.332 391.162 223.723H378.982C379.222 227.211 380.997 229.076 383.673 229.076C386.019 229.076 387.252 227.993 387.854 226.189H390.861C389.929 229.617 387.312 231.241 383.673 231.241ZM379.012 221.497H388.215C388.034 218.61 386.29 216.625 383.643 216.625C381.087 216.625 379.373 218.279 379.012 221.497ZM400.748 231.241C396.838 231.241 393.89 227.813 393.89 222.85C393.89 217.888 396.868 214.46 400.748 214.46C403.755 214.46 405.68 216.535 406.432 218.7V208.054H409.379V230.91H406.432V227.392C405.439 229.707 403.153 231.241 400.748 231.241ZM396.898 222.85C396.898 226.64 398.642 229.076 401.71 229.076C404.778 229.076 406.552 226.64 406.552 222.85C406.552 219.061 404.778 216.625 401.71 216.625C398.642 216.625 396.898 219.061 396.898 222.85ZM429.399 231.241C424.557 231.241 421.069 228.504 420.377 224.023H423.535C423.956 227.121 426.332 228.685 429.399 228.685C433.429 228.685 435.625 227.001 435.625 224.625C435.625 222.129 433.79 221.527 430.121 220.715L427.264 220.084C423.685 219.302 421.099 217.497 421.099 214.069C421.099 210.43 424.738 207.723 429.339 207.723C434.151 207.723 437.429 210.249 438.091 214.008H434.933C434.211 211.392 432.106 210.279 429.339 210.279C426.452 210.279 424.166 211.663 424.166 213.768C424.166 215.933 425.64 216.655 429.159 217.437L432.016 218.069C436.617 219.091 438.693 220.715 438.693 224.294C438.693 228.384 434.993 231.241 429.399 231.241ZM442.914 230.91V208.054H450.704C457.531 208.054 462.042 212.054 462.042 219.482C462.042 226.91 457.531 230.91 450.704 230.91H442.914ZM445.952 228.204H450.794C455.907 228.204 458.884 225.106 458.884 219.482C458.884 213.888 455.907 210.76 450.794 210.76H445.952V228.204ZM480.845 230.91L469.477 219.211V230.91H466.44V208.054H469.477V218.61L479.793 208.054H483.733L473.146 218.881L484.875 230.91H480.845ZM492.257 231.241C488.678 231.241 485.882 229.497 485.43 226.189H488.438C488.889 228.474 490.633 229.076 492.257 229.076C494.784 229.076 496.077 228.113 496.077 226.64C496.077 225.196 495.235 224.505 492.829 223.993L490.573 223.512C487.776 222.911 485.851 221.647 485.851 219.181C485.851 216.324 488.678 214.46 492.197 214.46C495.325 214.46 498.002 215.903 498.723 218.82H495.716C495.265 217.407 493.761 216.625 492.197 216.625C490.453 216.625 488.769 217.437 488.769 218.881C488.769 220.174 489.821 220.625 491.987 221.076L494.242 221.557C497.611 222.279 498.994 223.783 498.994 226.279C498.994 229.377 496.227 231.241 492.257 231.241ZM501.92 234.91L503.694 230.91H502.551V227.301H506.1V231.271L503.965 234.91H501.92ZM522.19 230.91V210.76H514.581V208.054H532.836V210.76H525.228V230.91H522.19ZM538.716 231.241C533.844 231.241 531.047 227.692 531.047 222.85C531.047 217.948 533.904 214.46 538.686 214.46C543.197 214.46 546.265 217.647 546.265 222.61C546.265 222.911 546.235 223.332 546.205 223.723H534.025C534.265 227.211 536.04 229.076 538.716 229.076C541.062 229.076 542.295 227.993 542.897 226.189H545.904C544.972 229.617 542.355 231.241 538.716 231.241ZM534.055 221.497H543.258C543.077 218.61 541.333 216.625 538.686 216.625C536.13 216.625 534.416 218.279 534.055 221.497ZM555.52 231.241C551.941 231.241 549.144 229.497 548.693 226.189H551.7C552.151 228.474 553.896 229.076 555.52 229.076C558.046 229.076 559.339 228.113 559.339 226.64C559.339 225.196 558.497 224.505 556.091 223.993L553.836 223.512C551.039 222.911 549.114 221.647 549.114 219.181C549.114 216.324 551.941 214.46 555.46 214.46C558.587 214.46 561.264 215.903 561.986 218.82H558.978C558.527 217.407 557.024 216.625 555.46 216.625C553.715 216.625 552.031 217.437 552.031 218.881C552.031 220.174 553.084 220.625 555.249 221.076L557.505 221.557C560.873 222.279 562.256 223.783 562.256 226.279C562.256 229.377 559.49 231.241 555.52 231.241ZM572.016 230.91C569.219 230.91 567.024 229.557 567.024 226.489V226.429V217.016H563.625V214.79H567.024V210.971H569.971V214.79H574.061V217.016H569.971V226.429V226.489C569.971 228.204 570.843 228.685 572.317 228.685H574.121V230.91H572.016ZM582.834 231.241C579.255 231.241 576.458 229.497 576.007 226.189H579.014C579.465 228.474 581.21 229.076 582.834 229.076C585.36 229.076 586.653 228.113 586.653 226.64C586.653 225.196 585.811 224.505 583.405 223.993L581.149 223.512C578.353 222.911 576.428 221.647 576.428 219.181C576.428 216.324 579.255 214.46 582.773 214.46C585.901 214.46 588.578 215.903 589.3 218.82H586.292C585.841 217.407 584.337 216.625 582.773 216.625C581.029 216.625 579.345 217.437 579.345 218.881C579.345 220.174 580.398 220.625 582.563 221.076L584.819 221.557C588.187 222.279 589.57 223.783 589.57 226.279C589.57 229.377 586.803 231.241 582.834 231.241ZM592.496 234.91L594.27 230.91H593.127V227.301H596.676V231.271L594.541 234.91H592.496ZM613.886 230.91V223.933H606.999V221.647H613.886V214.79H616.232V221.647H623.119V223.933H616.232V230.91H613.886ZM634.393 230.91V214.79H637.341V218.069C638.062 216.144 639.506 214.46 642.153 214.46C644.919 214.46 646.634 216.414 647.205 218.49C647.867 216.535 649.431 214.46 652.318 214.46C655.837 214.46 657.671 217.136 657.671 220.865V220.926V230.91H654.724V221.377V221.317C654.724 218.069 653.461 216.625 651.115 216.625C648.769 216.625 647.506 218.069 647.506 221.377V230.91H644.559V221.377V221.317C644.559 218.069 643.295 216.625 640.95 216.625C638.604 216.625 637.341 218.069 637.341 221.377V230.91H634.393ZM669.004 231.241C664.222 231.241 661.155 227.843 661.155 222.85C661.155 217.858 664.222 214.46 669.004 214.46C673.786 214.46 676.823 217.858 676.823 222.85C676.823 227.843 673.786 231.241 669.004 231.241ZM664.162 222.85C664.162 226.64 665.936 229.076 669.004 229.076C672.072 229.076 673.816 226.64 673.816 222.85C673.816 219.061 672.072 216.625 669.004 216.625C665.936 216.625 664.162 219.061 664.162 222.85ZM680.504 230.91V214.79H683.451V218.249C684.173 215.993 685.767 214.46 688.744 214.46V217.377H687.842C684.895 217.377 683.451 218.309 683.451 221.196V230.91H680.504ZM698.047 231.241C693.175 231.241 690.378 227.692 690.378 222.85C690.378 217.948 693.235 214.46 698.017 214.46C702.528 214.46 705.596 217.647 705.596 222.61C705.596 222.911 705.566 223.332 705.536 223.723H693.356C693.596 227.211 695.371 229.076 698.047 229.076C700.393 229.076 701.626 227.993 702.228 226.189H705.235C704.303 229.617 701.686 231.241 698.047 231.241ZM693.386 221.497H702.588C702.408 218.61 700.664 216.625 698.017 216.625C695.461 216.625 693.746 218.279 693.386 221.497Z" fill="#FBE331"/>
<g clip-path="url(#clip0_2016_3743)">
<path d="M558.122 19.9369H550.201L528.856 78.41L528.838 86.5091H536.76L558.122 27.9877V19.9369Z" fill="#FBE331"/>
<path d="M577.284 65.7442L574.226 57.3665H563.365H558.404V57.367L555.322 65.7442H566.423L574.003 86.5094H581.925L581.908 78.4105L577.284 65.7442Z" fill="#FBE331"/>
<path d="M178.435 50.0405L168.621 46.4653C165.958 45.4743 163.978 44.2394 162.673 42.7528C161.372 41.2739 160.719 39.2844 160.719 36.7763C160.719 33.9864 161.69 31.6918 163.629 29.8851C165.567 28.0861 168.071 27.1789 171.14 27.1789C174.497 27.1789 177.176 28.1852 179.171 30.19C181.17 32.2025 182.168 34.7716 182.168 37.9122V38.9566H191.284V37.9122C191.284 34.1922 190.446 30.8914 188.769 28.0099C187.088 25.1284 184.729 22.8948 181.69 21.2939C178.652 19.6931 175.135 18.8927 171.14 18.8927C167.32 18.8927 163.917 19.6779 160.935 21.2483C157.954 22.8186 155.624 24.9988 153.948 27.7965C152.267 30.5865 151.429 33.7577 151.429 37.3024C151.429 41.2587 152.499 44.7807 154.642 47.8603C156.781 50.94 160.344 53.387 165.321 55.186L174.092 58.2429C176.929 59.3482 179.027 60.7128 180.389 62.3442C181.747 63.9679 182.43 66.1252 182.43 68.8009C182.43 70.7142 181.963 72.4599 181.038 74.0302C180.112 75.6005 178.826 76.8432 177.176 77.7427C175.526 78.6423 173.686 79.092 171.66 79.092C168.363 79.092 165.67 78.0934 163.587 76.0808C161.501 74.076 160.461 71.4461 160.461 68.191V67.1391H151.429V68.0157C151.429 71.7968 152.267 75.1508 153.948 78.0934C155.624 81.0283 158.014 83.3075 161.11 84.9389C164.206 86.5702 167.722 87.3783 171.66 87.3783C175.598 87.3783 179.084 86.5778 182.126 84.9846C185.165 83.3838 187.521 81.1273 189.202 78.223C190.882 75.311 191.72 71.9721 191.72 68.191C191.72 64.0594 190.692 60.4383 188.636 57.3282C186.584 54.218 183.181 51.7862 178.435 50.0405Z" fill="#FBE331"/>
<path d="M244.212 22.5135C241.117 20.7983 237.54 19.9369 233.488 19.9369H213.951V86.5091H223.067V60.682H233.23C237.339 60.682 240.969 59.8436 244.125 58.1512C247.282 56.4666 249.728 54.0806 251.462 51.0009C253.199 47.9211 254.068 44.3687 254.068 40.359C254.068 36.4027 253.199 32.8657 251.462 29.7554C249.728 26.6452 247.308 24.2287 244.212 22.5135ZM241.303 49.1714C239.103 51.3211 236.121 52.3958 232.361 52.3958H223.067V28.2308H232.361C236.121 28.2308 239.103 29.3209 241.303 31.5011C243.503 33.6812 244.603 36.6314 244.603 40.359C244.603 44.0792 243.503 47.014 241.303 49.1714Z" fill="#FBE331"/>
<path d="M276.557 19.9369V86.5091H285.673H316.412V78.2227H285.673V57.2822H310.335V48.9045H285.673V28.2308H316.412V19.9369H285.673H276.557Z" fill="#FBE331"/>
<path d="M425.296 48.9045V48.996H415.483V19.9369H406.366V86.5091H415.483V57.3661H425.571L441.013 86.5091H449.09V82.2326L432.937 52.9218L449.09 24.2134V19.9369H441.013L425.296 48.9045Z" fill="#FBE331"/>
<path d="M470.276 19.9369V86.5091H479.392H510.131V78.2227H479.392V57.2822H504.055V48.9045H479.392V28.2308H510.131V19.9369H479.392H470.276Z" fill="#FBE331"/>
<path d="M624.718 50.0406L614.903 46.4654C612.24 45.4745 610.26 44.2395 608.955 42.7529C607.653 41.2741 607.002 39.2845 607.002 36.7765C607.002 33.9865 607.972 31.692 609.911 29.8852C611.849 28.0862 614.353 27.1791 617.423 27.1791C620.779 27.1791 623.458 28.1853 625.454 30.1902C627.453 32.2027 628.451 34.7717 628.451 37.9124V38.9567H637.566V37.9124C637.566 34.1923 636.728 30.8916 635.051 28.01C633.37 25.1285 631.011 22.8949 627.972 21.2941C624.933 19.6932 621.416 18.8928 617.423 18.8928C613.602 18.8928 610.2 19.678 607.217 21.2484C604.235 22.8187 601.907 24.9989 600.23 27.7966C598.549 30.5866 597.711 33.7578 597.711 37.3025C597.711 41.2588 598.781 44.7808 600.924 47.8605C603.063 50.9401 606.625 53.3871 611.603 55.1861L620.374 58.2431C623.211 59.3483 625.309 60.7129 626.671 62.3443C628.029 63.968 628.711 66.1253 628.711 68.801C628.711 70.7144 628.245 72.46 627.32 74.0303C626.394 75.6007 625.108 76.8433 623.458 77.7428C621.807 78.6424 619.968 79.0921 617.942 79.0921C614.645 79.0921 611.952 78.0935 609.869 76.0809C607.783 74.0761 606.743 71.4462 606.743 68.1912V67.1392H597.711V68.0159C597.711 71.7969 598.549 75.1509 600.23 78.0935C601.907 81.0284 604.297 83.3076 607.392 84.939C610.487 86.5703 614.004 87.3784 617.942 87.3784C621.879 87.3784 625.366 86.5779 628.408 84.9848C631.447 83.3839 633.803 81.1275 635.484 78.2231C637.164 75.3111 638.002 71.9722 638.002 68.1912C638.002 64.0595 636.974 60.4384 634.919 57.3283C632.866 54.2181 629.463 51.7863 624.718 50.0406Z" fill="#FBE331"/>
<path d="M693.754 19.9369L680.988 47.6009H679.476L666.748 19.9369H658.584V24.0381L675.689 59.6377V86.5091H684.896V59.3786L701.914 24.1296V19.9369H693.754Z" fill="#FBE331"/>
<path d="M364.078 19.9369H356.156L334.811 78.41L334.793 86.5091H342.715L364.078 27.9877V19.9369Z" fill="#FBE331"/>
<path d="M383.238 65.7442L380.18 57.3665H369.319H364.358V57.367L361.276 65.7442H372.377L379.957 86.5094H387.879L387.861 78.4105L383.238 65.7442Z" fill="#FBE331"/>
</g>
<path fill-rule="evenodd" clip-rule="evenodd" d="M62.89 105.78C92.1003 105.78 115.78 82.1003 115.78 52.89C115.78 23.6797 92.1003 0 62.89 0C33.6797 0 10 23.6797 10 52.89C10 82.1003 33.6797 105.78 62.89 105.78ZM48.9186 58.0277V63.5531H54.6911L65.1893 35.6483V29.9377H59.4486L48.9186 58.0277ZM60.3367 71.2701V76.7955H66.1091L76.6073 48.8908V43.1802H70.8666L60.3367 71.2701Z" fill="#FBE331"/>
<defs>
<clipPath id="clip0_2016_3743">
<rect width="550.486" height="68.4856" fill="white" transform="translate(151.429 18.8928)"/>
</clipPath>
</defs>
</svg>
