<svg width="709" height="112" viewBox="0 0 709 112" fill="none" xmlns="http://www.w3.org/2000/svg">
<path d="M696.863 24.2365L679.21 72.5436L660.978 24.2365H649.034L673.184 86.3043L670.188 93.3293C669.342 95.413 668.604 96.8889 668.018 97.6992L667.967 97.7715C667.49 98.5963 666.86 99.1606 666.043 99.4934C665.182 99.8552 663.829 100.036 662.02 100.036H652.586V110.44H665.008C667.902 110.44 670.261 109.969 672.033 109.043C673.813 108.11 675.318 106.656 676.49 104.717C677.619 102.858 678.928 100.051 680.368 96.368L708.808 24.2292H696.856L696.863 24.2365Z" fill="black"/>
<path d="M638.102 52.0901C634.651 50.9687 630.187 50.0716 624.833 49.4349C621.049 48.9647 618.184 48.5233 616.303 48.1327C614.61 47.7637 613.199 47.0619 612.107 46.0418C611.058 45.0651 610.544 43.676 610.544 41.7949C610.544 39.2483 611.687 37.2587 614.053 35.7032C616.462 34.0464 619.703 33.2072 623.668 33.2072C627.633 33.2072 630.809 34.1983 633.377 36.159C635.946 38.1269 637.378 40.5433 637.754 43.553L637.834 44.1897H649.041L648.983 43.4083C648.491 37.0127 645.865 32.0134 641.176 28.5624C636.611 25.1403 630.606 23.4039 623.314 23.4039C618.857 23.4039 614.777 24.2287 611.202 25.8493C607.6 27.4048 604.691 29.6548 602.55 32.5416C600.48 35.4427 599.431 38.7925 599.431 42.5112C599.431 46.6567 600.538 49.992 602.73 52.4374C604.879 54.7526 607.715 56.46 611.166 57.5307C614.531 58.5726 618.915 59.4263 624.182 60.0629C627.879 60.5332 630.744 61.0107 632.704 61.481C634.629 61.9223 636.199 62.7471 637.371 63.9119C638.543 65.0767 639.071 66.7118 639.071 68.8895C639.071 71.4361 637.848 73.4619 635.345 75.0825C632.849 76.6669 629.485 77.4772 625.347 77.4772C620.673 77.4772 616.802 76.3631 613.843 74.1637C610.971 71.9715 609.502 69.2223 609.35 65.7568L609.321 65.0622H598.107V65.7929C598.201 72.5214 600.741 77.8534 605.69 81.6445C610.645 85.3849 617.258 87.2804 625.347 87.2804C629.876 87.2804 634.065 86.4991 637.798 84.9581C641.56 83.4026 644.591 81.1598 646.812 78.2875C649.048 75.3864 650.184 71.986 650.184 68.1732C650.184 63.7961 649.041 60.2655 646.791 57.6754C644.642 55.1143 641.719 53.2332 638.109 52.0829L638.102 52.0901Z" fill="black"/>
<path d="M590.96 75.2953C590.41 74.7021 590.135 73.7471 590.135 72.4737V46.2112C590.135 38.9474 587.885 33.297 583.45 29.4408C579.116 25.5195 572.887 23.5227 564.943 23.5227C557.498 23.5227 551.334 25.2591 546.61 28.6739C541.929 32.1249 539.18 36.994 538.442 43.1364L538.348 43.9467H549.54L549.656 43.3679C550.256 40.4306 551.797 38.1588 554.373 36.4152C557.021 34.5993 560.421 33.6804 564.473 33.6804C569.052 33.6804 572.626 34.744 575.115 36.8565C577.669 38.9619 578.914 41.8269 578.914 45.6107V49.0617H561.731C553.642 49.0617 547.348 50.7619 543.079 54.0683L543.014 54.1044C538.709 57.4976 536.532 62.4245 536.532 68.7622C536.532 74.4633 538.673 79.0285 542.906 82.3493C547.153 85.6194 552.803 87.2762 559.698 87.2762C568.119 87.2762 574.79 84.281 579.55 78.3629C579.905 80.7215 580.802 82.6098 582.234 83.9699C584.036 85.6846 587.017 86.56 591.09 86.56H597.182V76.1563H593.477C592.327 76.1563 591.502 75.8741 590.967 75.2881L590.96 75.2953ZM578.899 58.7564V61.0137C578.899 65.9551 577.25 69.9922 574.001 73.0163C570.731 75.9826 566.158 77.4802 560.407 77.4802C556.529 77.4802 553.425 76.6048 551.175 74.8829C548.954 73.1827 547.876 70.9906 547.876 68.1762C547.876 65.0074 548.896 62.7067 550.987 61.1439C553.114 59.5595 556.406 58.7492 560.761 58.7492H578.899V58.7564Z" fill="black"/>
<path d="M517.583 27.0678C513.199 24.7165 508.106 23.5227 502.441 23.5227C496.776 23.5227 491.502 24.8829 487.031 27.5598C482.559 30.1643 479.007 33.912 476.489 38.7087C474.059 43.4909 472.829 49.1051 472.829 55.3995C472.829 61.6938 474.102 67.2285 476.62 72.0975C479.217 76.887 482.885 80.678 487.523 83.3622C492.146 85.9595 497.608 87.2762 503.758 87.2762C510.819 87.2762 516.874 85.2505 521.772 81.2568C526.656 77.1836 529.752 71.9022 530.975 65.5572L531.142 64.6963H519.805L519.66 65.2316C518.676 68.9431 516.679 71.9022 513.735 74.022C510.848 76.0694 507.252 77.1113 503.049 77.1113C497.63 77.1113 493.18 75.3749 489.838 71.96C486.488 68.5307 484.708 63.8787 484.549 58.1342V58.0257H531.764L531.822 57.3601C531.981 55.4067 532.06 54.0248 532.06 53.106C531.901 47.13 530.541 41.8341 528.031 37.3702C525.506 32.8918 521.997 29.4263 517.598 27.0605L517.583 27.0678ZM520.376 48.4757H485.229C485.815 44.1927 487.711 40.6476 490.858 37.9273C494.208 35.0334 498.143 33.5647 502.564 33.5647C507.534 33.5647 511.673 34.9538 514.863 37.6885C517.945 40.2714 519.797 43.8961 520.369 48.4757H520.376Z" fill="black"/>
<path d="M474.587 24.2394H460.906L431.019 55.8557V1.55811H419.783V76.1639H411.535C410.385 76.1639 409.56 75.8818 409.025 75.2957C408.475 74.7025 408.2 73.7475 408.2 72.4741V46.2116C408.2 38.9478 405.95 33.2974 401.515 29.4412C397.181 25.5199 390.952 23.5231 383.008 23.5231C375.563 23.5231 369.399 25.2595 364.675 28.6743C359.994 32.1254 357.245 36.9944 356.507 43.1368L356.413 43.9471H367.605L367.721 43.3683C368.321 40.431 369.862 38.1592 372.438 36.4156C375.086 34.5997 378.486 33.6736 382.538 33.6736C387.117 33.6736 390.691 34.7371 393.18 36.8497C395.734 38.9551 396.979 41.8128 396.979 45.6039V49.0549H379.796C371.707 49.0549 365.413 50.7551 361.086 54.1049C356.782 57.498 354.604 62.4249 354.604 68.7627C354.604 74.4637 356.746 79.0289 360.978 82.3497C365.225 85.6199 370.875 87.2766 377.77 87.2766C386.191 87.2766 392.862 84.2814 397.622 78.3633C397.977 80.7219 398.874 82.6029 400.307 83.9703C402.108 85.685 405.089 86.5604 409.162 86.5604H419.797H431.033V70.0071L442.399 58.084L462.186 86.2493L462.403 86.5604H475.983L450.459 49.9737L474.601 24.2321L474.587 24.2394ZM369.052 61.1444C371.179 59.5599 374.471 58.7496 378.826 58.7496H396.964V61.0069C396.964 65.9483 395.314 69.9854 392.066 73.0095C388.796 75.9758 384.223 77.4734 378.472 77.4734C374.594 77.4734 371.49 76.598 369.24 74.8761C367.019 73.1759 365.941 70.9838 365.941 68.1694C365.941 65.0005 366.961 62.6999 369.052 61.1371V61.1444Z" fill="black"/>
<path d="M335.649 27.0678C331.265 24.7165 326.171 23.5227 320.506 23.5227C314.841 23.5227 309.567 24.8829 305.096 27.5598C300.618 30.1643 297.073 33.912 294.555 38.7087C292.124 43.4909 290.894 49.1051 290.894 55.3995C290.894 61.6938 292.167 67.2285 294.685 72.0975C297.282 76.887 300.951 80.678 305.588 83.3622C310.211 85.9595 315.673 87.2762 321.816 87.2762C328.877 87.2762 334.94 85.2505 339.831 81.2568C344.714 77.1836 347.811 71.9022 349.033 65.5572L349.2 64.6963H337.863L337.718 65.2316C336.734 68.9431 334.737 71.9022 331.793 74.022C328.906 76.0694 325.31 77.1113 321.107 77.1113C315.688 77.1113 311.238 75.3749 307.896 71.96C304.546 68.5307 302.766 63.8787 302.615 58.1342V58.0257H349.829L349.887 57.3601C350.046 55.4067 350.126 54.0248 350.126 53.106C349.967 47.1228 348.606 41.8341 346.096 37.3702C343.571 32.8918 340.062 29.4263 335.663 27.0605L335.649 27.0678ZM338.442 48.4757H303.295C303.881 44.1927 305.776 40.6476 308.923 37.9273C312.273 35.0334 316.209 33.5647 320.629 33.5647C325.6 33.5647 329.738 34.9538 332.929 37.6885C336.011 40.2714 337.863 43.8961 338.434 48.4757H338.442Z" fill="black"/>
<path d="M271.714 27.3138C267.251 24.796 262.07 23.5227 256.319 23.5227C247.883 23.5227 241.024 26.6916 235.916 32.9353L234.752 24.239H224.919V110.442H236.155V78.7753C238.051 81.1266 240.46 83.0728 243.332 84.5776H243.347C246.935 86.3791 251.298 87.2835 256.326 87.2835C262.005 87.2835 267.185 85.9233 271.736 83.2464C276.287 80.5623 279.875 76.7712 282.393 71.9818C284.983 67.1995 286.3 61.6214 286.3 55.4067C286.3 48.8664 284.983 43.1292 282.393 38.3542C279.868 33.5574 276.28 29.8387 271.722 27.321L271.714 27.3138ZM274.811 55.4067C274.811 61.8023 272.988 67.0982 269.385 71.1642C265.883 75.1217 261.166 77.1257 255.364 77.1257C251.616 77.1257 248.208 76.1997 245.242 74.3693C242.348 72.5388 240.069 69.9488 238.47 66.6714C236.857 63.2855 236.032 59.4148 236.032 55.1679C236.032 50.9211 236.85 47.253 238.463 44.0263C240.062 40.7489 242.341 38.195 245.235 36.4442C248.208 34.6137 251.616 33.6877 255.364 33.6877C261.166 33.6877 265.883 35.7351 269.392 39.7794C272.988 43.7586 274.818 49.0183 274.818 55.4067H274.811Z" fill="black"/>
<path d="M206.159 52.0901C202.708 50.9687 198.244 50.0716 192.891 49.4349C189.114 48.9647 186.242 48.5233 184.361 48.1327C182.668 47.7637 181.257 47.0619 180.164 46.0418C179.115 45.0651 178.602 43.676 178.602 41.7949C178.602 39.2483 179.745 37.2587 182.111 35.7032C184.52 34.0464 187.761 33.2072 191.726 33.2072C195.69 33.2072 198.867 34.1983 201.435 36.159C204.003 38.1196 205.436 40.5433 205.812 43.553L205.892 44.1897H217.098L217.041 43.4083C216.549 37.0127 213.922 32.0134 209.234 28.5624C204.669 25.1403 198.664 23.4039 191.371 23.4039C186.915 23.4039 182.834 24.2287 179.26 25.8493C175.657 27.4048 172.749 29.6548 170.607 32.5416C168.538 35.4355 167.489 38.7925 167.489 42.5112C167.489 46.6567 168.596 49.992 170.788 52.4374C172.937 54.7526 175.773 56.46 179.224 57.5307C182.588 58.5726 186.972 59.4263 192.239 60.0629C195.936 60.5332 198.801 61.0107 200.762 61.481C202.687 61.9223 204.257 62.7471 205.429 63.9119C206.557 65.0405 207.129 66.7118 207.129 68.8895C207.129 71.4361 205.906 73.4619 203.403 75.0825C200.907 76.6669 197.543 77.4772 193.404 77.4772C188.731 77.4772 184.86 76.3631 181.901 74.1637C179.029 71.9715 177.56 69.2223 177.408 65.7568L177.379 65.0622H166.165V65.7929C166.252 72.5214 168.799 77.8534 173.74 81.6445C178.696 85.3849 185.316 87.2804 193.397 87.2804C197.926 87.2804 202.115 86.4991 205.848 84.9581C209.61 83.4026 212.642 81.1598 214.863 78.2875C217.098 75.3864 218.234 71.9787 218.234 68.1732C218.234 63.7961 217.091 60.2655 214.841 57.6754C212.692 55.1143 209.77 53.2332 206.152 52.0829L206.159 52.0901Z" fill="black"/>
<path d="M81.9078 105.355L6.49891 94.6402L0.718262 99.6539L81.9078 111.186L115.174 82.3264L109.4 81.5089L81.9078 105.355Z" fill="black"/>
<path d="M81.9078 87.8623L115.174 59.0025L109.4 58.1849L81.9078 82.0238L55.0014 78.2038L18.0457 72.9585L6.49891 71.3162L0.718262 76.3299L12.2723 77.965L0.718262 87.9853L81.9078 99.5176L115.174 70.6651L109.4 69.8475L81.915 93.6936L43.4473 88.224L49.2207 83.2175L81.9078 87.8623Z" fill="black"/>
<path d="M81.9078 70.3604L6.49891 59.6456L0.718262 64.6594L81.9078 76.1917L115.174 47.3391L109.4 46.5216L81.9078 70.3604Z" fill="black"/>
<path d="M109.4 23.1892L97.8462 33.2095L81.9078 47.0353L50.74 42.6076L6.49891 36.3205L0.718262 41.3342L44.9594 47.6141L39.186 52.6278L6.49167 47.983L0.718262 52.9968L81.9078 64.5292L115.174 35.6766L103.62 34.0343L115.174 24.0067L109.4 23.1892Z" fill="black"/>
<path d="M115.174 12.3444L33.9841 0.812012L0.718262 29.6646L81.9078 41.2042L115.174 12.3444Z" fill="black"/>
</svg>
