<svg width="811" height="424" viewBox="0 0 811 424" fill="none" xmlns="http://www.w3.org/2000/svg">
<path d="M60.176 272.239V232.055H71.0679L82.9643 272.08L94.8608 232.055H105.753V272.239H100.412V232.214L88.516 272.239H77.4127L65.5162 232.214V272.239H60.176ZM126.373 272.82C117.966 272.82 112.573 266.846 112.573 258.069C112.573 249.292 117.966 243.317 126.373 243.317C134.78 243.317 140.12 249.292 140.12 258.069C140.12 266.846 134.78 272.82 126.373 272.82ZM117.86 258.069C117.86 264.731 120.98 269.014 126.373 269.014C131.766 269.014 134.832 264.731 134.832 258.069C134.832 251.407 131.766 247.124 126.373 247.124C120.98 247.124 117.86 251.407 117.86 258.069ZM156.9 272.82C150.027 272.82 144.845 266.793 144.845 258.069C144.845 249.345 150.08 243.317 156.9 243.317C162.188 243.317 165.572 246.965 166.893 250.772V232.055H172.075V272.239H166.893V266.053C165.149 270.124 161.13 272.82 156.9 272.82ZM150.133 258.069C150.133 264.731 153.199 269.014 158.592 269.014C163.985 269.014 167.105 264.731 167.105 258.069C167.105 251.407 163.985 247.124 158.592 247.124C153.199 247.124 150.133 251.407 150.133 258.069ZM192.045 272.82C183.479 272.82 178.562 266.581 178.562 258.069C178.562 249.45 183.585 243.317 191.992 243.317C199.923 243.317 205.316 248.922 205.316 257.646C205.316 258.175 205.263 258.915 205.21 259.602H183.797C184.22 265.735 187.339 269.014 192.045 269.014C196.169 269.014 198.337 267.11 199.394 263.938H204.682C203.043 269.965 198.443 272.82 192.045 272.82ZM183.85 255.689H200.029C199.712 250.614 196.645 247.124 191.992 247.124C187.498 247.124 184.484 250.032 183.85 255.689ZM211.752 272.239V243.899H216.934V249.979C218.203 246.014 221.005 243.317 226.239 243.317V248.446H224.653C219.472 248.446 216.934 250.085 216.934 255.161V272.239H211.752ZM231.476 272.239V243.899H236.658V249.662C237.927 246.331 240.676 243.317 245.541 243.317C251.938 243.317 255.375 248.234 255.375 254.579V254.685V272.239H250.193V255.478V255.372C250.193 249.609 247.55 247.124 243.426 247.124C239.302 247.124 236.658 249.662 236.658 255.478V272.239H231.476ZM286.577 272.239C281.66 272.239 277.8 269.859 277.8 264.466V264.361V247.811H271.825V243.899H277.8V237.184H282.981V243.899H290.172V247.811H282.981V264.361V264.466C282.981 267.48 284.515 268.326 287.105 268.326H290.278V272.239H286.577ZM307.35 272.82C298.943 272.82 293.55 266.846 293.55 258.069C293.55 249.292 298.943 243.317 307.35 243.317C315.756 243.317 321.097 249.292 321.097 258.069C321.097 266.846 315.756 272.82 307.35 272.82ZM298.837 258.069C298.837 264.731 301.957 269.014 307.35 269.014C312.743 269.014 315.809 264.731 315.809 258.069C315.809 251.407 312.743 247.124 307.35 247.124C301.957 247.124 298.837 251.407 298.837 258.069ZM339.569 272.82C331.162 272.82 325.769 266.846 325.769 258.069C325.769 249.292 331.162 243.317 339.569 243.317C347.976 243.317 353.316 249.292 353.316 258.069C353.316 266.846 347.976 272.82 339.569 272.82ZM331.057 258.069C331.057 264.731 334.176 269.014 339.569 269.014C344.962 269.014 348.029 264.731 348.029 258.069C348.029 251.407 344.962 247.124 339.569 247.124C334.176 247.124 331.057 251.407 331.057 258.069ZM359.787 272.239V232.055H364.968V272.239H359.787ZM373.211 272.239V243.899H378.393V272.239H373.211ZM373 239.034V232.055H378.604V239.034H373ZM386.636 272.239V243.899H391.818V249.662C393.087 246.331 395.836 243.317 400.7 243.317C407.098 243.317 410.535 248.234 410.535 254.579V254.685V272.239H405.353V255.478V255.372C405.353 249.609 402.71 247.124 398.586 247.124C394.461 247.124 391.818 249.662 391.818 255.478V272.239H386.636ZM431.079 283.184C424.259 283.184 418.866 279.958 418.231 273.772H423.519C423.994 277.473 427.273 279.377 431.079 279.377C435.415 279.377 438.852 277.103 438.852 272.45V265.471C437.107 269.489 433.089 272.08 428.859 272.08C421.985 272.08 416.804 266.423 416.804 257.699C416.804 248.975 422.038 243.317 428.859 243.317C434.146 243.317 437.53 246.807 438.852 250.614V243.899H444.033V272.345C444.033 279.905 437.689 283.184 431.079 283.184ZM422.091 257.699C422.091 264.361 425.158 268.273 430.551 268.273C435.944 268.273 439.063 264.361 439.063 257.699C439.063 251.037 435.944 247.124 430.551 247.124C425.158 247.124 422.091 251.037 422.091 257.699ZM466.988 239.933C466.988 234.487 470.795 232.055 475.765 232.055H479.466V235.968H476.293C473.703 235.968 472.169 236.814 472.169 239.933V243.899H479.466V247.811H472.169V272.239H466.988V247.811H461.119V243.899H466.988V239.933ZM495.4 272.82C486.994 272.82 481.601 266.846 481.601 258.069C481.601 249.292 486.994 243.317 495.4 243.317C503.807 243.317 509.147 249.292 509.147 258.069C509.147 266.846 503.807 272.82 495.4 272.82ZM486.888 258.069C486.888 264.731 490.007 269.014 495.4 269.014C500.793 269.014 503.86 264.731 503.86 258.069C503.86 251.407 500.793 247.124 495.4 247.124C490.007 247.124 486.888 251.407 486.888 258.069ZM515.618 272.239V243.899H520.799V249.979C522.068 246.014 524.871 243.317 530.105 243.317V248.446H528.519C523.337 248.446 520.799 250.085 520.799 255.161V272.239H515.618ZM552.686 282.602L557.233 269.119H552.21L542.376 243.899H547.716L557.392 268.643L565.693 243.899H571.086L558.079 282.602H552.686ZM587.515 272.82C579.109 272.82 573.715 266.846 573.715 258.069C573.715 249.292 579.109 243.317 587.515 243.317C595.922 243.317 601.262 249.292 601.262 258.069C601.262 266.846 595.922 272.82 587.515 272.82ZM579.003 258.069C579.003 264.731 582.122 269.014 587.515 269.014C592.908 269.014 595.975 264.731 595.975 258.069C595.975 251.407 592.908 247.124 587.515 247.124C582.122 247.124 579.003 251.407 579.003 258.069ZM617.144 272.82C610.746 272.82 607.415 267.903 607.415 261.558V261.453V243.899H612.597V260.66V260.765C612.597 266.476 615.135 269.014 619.259 269.014C623.383 269.014 625.868 266.423 625.868 260.66V243.899H631.05V272.239H625.868V266.581C624.652 269.807 621.85 272.82 617.144 272.82ZM639.281 272.239V243.899H644.463V249.979C645.732 246.014 648.534 243.317 653.768 243.317V248.446H652.182C647.001 248.446 644.463 250.085 644.463 255.161V272.239H639.281ZM665.625 272.239L680.059 232.055H691.004L705.438 272.239H699.728L695.392 260.078H675.671L671.335 272.239H665.625ZM677.362 255.319H693.7L685.558 232.267L677.362 255.319ZM710.609 272.239V232.055H725.413C734.93 232.055 740.693 236.549 740.693 244.639C740.693 252.729 734.93 257.223 725.413 257.223H715.949V272.239H710.609ZM715.949 252.464H725.572C731.758 252.464 735.142 249.926 735.142 244.639C735.142 239.352 731.758 236.814 725.572 236.814H715.949V252.464ZM747.424 272.239V232.055H752.764V272.239H747.424Z" fill="black"/>
<path d="M66.5394 324.241C60.1035 324.241 55.6524 319.489 55.6524 312.482C55.6524 305.475 60.1035 300.723 66.5394 300.723C72.9754 300.723 77.4264 305.475 77.4264 312.482C77.4264 319.489 72.9754 324.241 66.5394 324.241ZM58.8102 312.482C58.8102 317.895 61.938 321.685 66.5394 321.685C71.1408 321.685 74.2686 317.895 74.2686 312.482C74.2686 307.069 71.1408 303.279 66.5394 303.279C61.938 303.279 58.8102 307.069 58.8102 312.482ZM81.2826 329.805V307.79H84.2299V311.7C84.9818 309.535 86.9065 307.46 89.914 307.46C93.7936 307.46 96.771 310.888 96.771 315.85C96.771 320.813 93.8237 324.241 89.914 324.241C87.508 324.241 85.2223 322.707 84.2299 320.392V329.805H81.2826ZM84.1096 315.85C84.1096 319.64 85.884 322.076 88.9516 322.076C92.0192 322.076 93.7635 319.64 93.7635 315.85C93.7635 312.061 92.0192 309.625 88.9516 309.625C85.884 309.625 84.1096 312.061 84.1096 315.85ZM107.138 324.241C102.265 324.241 99.4686 320.692 99.4686 315.85C99.4686 310.948 102.326 307.46 107.108 307.46C111.619 307.46 114.686 310.647 114.686 315.61C114.686 315.911 114.656 316.332 114.626 316.723H102.446C102.687 320.211 104.461 322.076 107.138 322.076C109.483 322.076 110.716 320.993 111.318 319.189H114.325C113.393 322.617 110.777 324.241 107.138 324.241ZM102.476 314.497H111.679C111.498 311.61 109.754 309.625 107.108 309.625C104.551 309.625 102.837 311.279 102.476 314.497ZM118.347 323.91V307.79H121.295V311.069C122.016 309.174 123.58 307.46 126.347 307.46C129.986 307.46 131.941 310.257 131.941 313.865V313.926V323.91H128.994V314.377V314.317C128.994 311.038 127.49 309.625 125.144 309.625C122.798 309.625 121.295 311.069 121.295 314.377V323.91H118.347ZM134.183 323.91L142.394 301.054H148.619L156.83 323.91H153.582L151.115 316.993H139.898L137.431 323.91H134.183ZM140.86 314.287H150.153L145.522 301.174L140.86 314.287ZM159.771 323.91V301.054H168.191C173.605 301.054 176.883 303.61 176.883 308.211C176.883 312.813 173.605 315.369 168.191 315.369H162.808V323.91H159.771ZM162.808 312.662H168.282C171.8 312.662 173.725 311.219 173.725 308.211C173.725 305.204 171.8 303.76 168.282 303.76H162.808V312.662ZM180.711 323.91V301.054H183.749V323.91H180.711ZM188.621 316.632V314.166H198.125V316.632H188.621ZM202.492 323.91V307.79H205.439V311.069C206.161 309.174 207.725 307.46 210.491 307.46C214.13 307.46 216.085 310.257 216.085 313.865V313.926V323.91H213.138V314.377V314.317C213.138 311.038 211.634 309.625 209.288 309.625C206.943 309.625 205.439 311.069 205.439 314.377V323.91H202.492ZM225.095 324.241C222.087 324.241 219.681 322.046 219.681 319.068C219.681 315.309 223.44 314.587 226.328 314.287L230.658 313.835V313.565V313.505C230.658 311.399 229.485 309.625 226.929 309.625C224.673 309.625 223.41 311.008 223.2 312.542H220.192C220.553 309.505 223.14 307.46 226.929 307.46C231.831 307.46 233.606 310.527 233.606 313.535V313.595V323.91H230.658V320.602C229.546 322.858 228.222 324.241 225.095 324.241ZM222.689 319.068C222.689 321.144 224.313 322.286 226.177 322.286C229.155 322.286 230.658 319.941 230.658 317.053V315.85L227.44 316.181C225.215 316.422 222.689 316.723 222.689 319.068ZM244.318 323.91C241.521 323.91 239.326 322.557 239.326 319.489V319.429V310.016H235.927V307.79H239.326V303.971H242.273V307.79H246.363V310.016H242.273V319.429V319.489C242.273 321.204 243.145 321.685 244.619 321.685H246.423V323.91H244.318ZM249.542 323.91V307.79H252.489V323.91H249.542ZM249.422 305.024V301.054H252.609V305.024H249.422ZM260.607 323.91L255.223 307.79H258.231L263.494 323.76L268.727 307.79H271.734L266.351 323.91H260.607ZM280.977 324.241C276.105 324.241 273.308 320.692 273.308 315.85C273.308 310.948 276.165 307.46 280.947 307.46C285.458 307.46 288.526 310.647 288.526 315.61C288.526 315.911 288.496 316.332 288.466 316.723H276.286C276.526 320.211 278.301 322.076 280.977 322.076C283.323 322.076 284.556 320.993 285.158 319.189H288.165C287.233 322.617 284.616 324.241 280.977 324.241ZM276.316 314.497H285.518C285.338 311.61 283.594 309.625 280.947 309.625C278.391 309.625 276.676 311.279 276.316 314.497ZM305.48 323.91L315.585 301.054H320.517L310.412 323.91H305.48ZM337.399 323.91V301.054H345.82C351.233 301.054 354.511 303.61 354.511 308.211C354.511 312.813 351.233 315.369 345.82 315.369H340.436V323.91H337.399ZM340.436 312.662H345.91C349.429 312.662 351.353 311.219 351.353 308.211C351.353 305.204 349.429 303.76 345.91 303.76H340.436V312.662ZM364.185 324.241C359.403 324.241 356.336 320.843 356.336 315.85C356.336 310.858 359.403 307.46 364.185 307.46C368.967 307.46 372.005 310.858 372.005 315.85C372.005 320.843 368.967 324.241 364.185 324.241ZM359.343 315.85C359.343 319.64 361.118 322.076 364.185 322.076C367.253 322.076 368.997 319.64 368.997 315.85C368.997 312.061 367.253 309.625 364.185 309.625C361.118 309.625 359.343 312.061 359.343 315.85ZM375.685 323.91V301.054H378.632V323.91H375.685ZM383.321 323.91V307.79H386.268V323.91H383.321ZM383.201 305.024V301.054H386.389V305.024H383.201ZM396.551 324.241C392.972 324.241 390.175 322.497 389.724 319.189H392.732C393.183 321.474 394.927 322.076 396.551 322.076C399.077 322.076 400.371 321.113 400.371 319.64C400.371 318.196 399.529 317.505 397.123 316.993L394.867 316.512C392.07 315.911 390.145 314.647 390.145 312.181C390.145 309.324 392.972 307.46 396.491 307.46C399.619 307.46 402.295 308.903 403.017 311.82H400.01C399.559 310.407 398.055 309.625 396.491 309.625C394.747 309.625 393.062 310.437 393.062 311.881C393.062 313.174 394.115 313.625 396.28 314.076L398.536 314.557C401.904 315.279 403.288 316.783 403.288 319.279C403.288 322.377 400.521 324.241 396.551 324.241ZM406.905 323.91V301.054H409.852V311.069C410.574 309.174 412.138 307.46 414.905 307.46C418.544 307.46 420.499 310.257 420.499 313.865V313.926V323.91H417.551V314.377V314.317C417.551 311.038 416.048 309.625 413.702 309.625C411.356 309.625 409.852 311.069 409.852 314.377V323.91H406.905ZM431.673 324.241C426.801 324.241 424.004 320.692 424.004 315.85C424.004 310.948 426.861 307.46 431.643 307.46C436.154 307.46 439.222 310.647 439.222 315.61C439.222 315.911 439.192 316.332 439.162 316.723H426.982C427.222 320.211 428.997 322.076 431.673 322.076C434.019 322.076 435.252 320.993 435.854 319.189H438.861C437.929 322.617 435.312 324.241 431.673 324.241ZM427.012 314.497H436.215C436.034 311.61 434.29 309.625 431.643 309.625C429.087 309.625 427.373 311.279 427.012 314.497ZM448.748 324.241C444.838 324.241 441.89 320.813 441.89 315.85C441.89 310.888 444.868 307.46 448.748 307.46C451.755 307.46 453.68 309.535 454.432 311.7V301.054H457.379V323.91H454.432V320.392C453.439 322.707 451.153 324.241 448.748 324.241ZM444.898 315.85C444.898 319.64 446.642 322.076 449.71 322.076C452.778 322.076 454.552 319.64 454.552 315.85C454.552 312.061 452.778 309.625 449.71 309.625C446.642 309.625 444.898 312.061 444.898 315.85ZM477.399 324.241C472.557 324.241 469.069 321.504 468.377 317.023H471.535C471.956 320.121 474.332 321.685 477.399 321.685C481.429 321.685 483.625 320.001 483.625 317.625C483.625 315.129 481.79 314.527 478.121 313.715L475.264 313.084C471.685 312.302 469.099 310.497 469.099 307.069C469.099 303.43 472.738 300.723 477.339 300.723C482.151 300.723 485.429 303.249 486.091 307.008H482.933C482.211 304.392 480.106 303.279 477.339 303.279C474.452 303.279 472.166 304.663 472.166 306.768C472.166 308.933 473.64 309.655 477.159 310.437L480.016 311.069C484.617 312.091 486.693 313.715 486.693 317.294C486.693 321.384 482.993 324.241 477.399 324.241ZM490.914 323.91V301.054H498.704C505.531 301.054 510.042 305.054 510.042 312.482C510.042 319.91 505.531 323.91 498.704 323.91H490.914ZM493.952 321.204H498.794C503.907 321.204 506.884 318.106 506.884 312.482C506.884 306.888 503.907 303.76 498.794 303.76H493.952V321.204ZM528.845 323.91L517.477 312.211V323.91H514.44V301.054H517.477V311.61L527.793 301.054H531.733L521.146 311.881L532.875 323.91H528.845ZM540.257 324.241C536.678 324.241 533.882 322.497 533.43 319.189H536.438C536.889 321.474 538.633 322.076 540.257 322.076C542.784 322.076 544.077 321.113 544.077 319.64C544.077 318.196 543.235 317.505 540.829 316.993L538.573 316.512C535.776 315.911 533.851 314.647 533.851 312.181C533.851 309.324 536.678 307.46 540.197 307.46C543.325 307.46 546.002 308.903 546.723 311.82H543.716C543.265 310.407 541.761 309.625 540.197 309.625C538.453 309.625 536.769 310.437 536.769 311.881C536.769 313.174 537.821 313.625 539.987 314.076L542.242 314.557C545.611 315.279 546.994 316.783 546.994 319.279C546.994 322.377 544.227 324.241 540.257 324.241ZM549.92 327.91L551.694 323.91H550.551V320.301H554.1V324.271L551.965 327.91H549.92ZM570.19 323.91V303.76H562.581V301.054H580.836V303.76H573.228V323.91H570.19ZM586.716 324.241C581.844 324.241 579.047 320.692 579.047 315.85C579.047 310.948 581.904 307.46 586.686 307.46C591.197 307.46 594.265 310.647 594.265 315.61C594.265 315.911 594.235 316.332 594.205 316.723H582.025C582.265 320.211 584.04 322.076 586.716 322.076C589.062 322.076 590.295 320.993 590.897 319.189H593.904C592.972 322.617 590.355 324.241 586.716 324.241ZM582.055 314.497H591.258C591.077 311.61 589.333 309.625 586.686 309.625C584.13 309.625 582.416 311.279 582.055 314.497ZM603.52 324.241C599.941 324.241 597.144 322.497 596.693 319.189H599.7C600.151 321.474 601.896 322.076 603.52 322.076C606.046 322.076 607.339 321.113 607.339 319.64C607.339 318.196 606.497 317.505 604.091 316.993L601.836 316.512C599.039 315.911 597.114 314.647 597.114 312.181C597.114 309.324 599.941 307.46 603.46 307.46C606.587 307.46 609.264 308.903 609.986 311.82H606.978C606.527 310.407 605.024 309.625 603.46 309.625C601.715 309.625 600.031 310.437 600.031 311.881C600.031 313.174 601.084 313.625 603.249 314.076L605.505 314.557C608.873 315.279 610.256 316.783 610.256 319.279C610.256 322.377 607.49 324.241 603.52 324.241ZM620.016 323.91C617.219 323.91 615.024 322.557 615.024 319.489V319.429V310.016H611.625V307.79H615.024V303.971H617.971V307.79H622.061V310.016H617.971V319.429V319.489C617.971 321.204 618.843 321.685 620.317 321.685H622.121V323.91H620.016ZM630.834 324.241C627.255 324.241 624.458 322.497 624.007 319.189H627.014C627.465 321.474 629.21 322.076 630.834 322.076C633.36 322.076 634.653 321.113 634.653 319.64C634.653 318.196 633.811 317.505 631.405 316.993L629.149 316.512C626.353 315.911 624.428 314.647 624.428 312.181C624.428 309.324 627.255 307.46 630.773 307.46C633.901 307.46 636.578 308.903 637.3 311.82H634.292C633.841 310.407 632.337 309.625 630.773 309.625C629.029 309.625 627.345 310.437 627.345 311.881C627.345 313.174 628.398 313.625 630.563 314.076L632.819 314.557C636.187 315.279 637.57 316.783 637.57 319.279C637.57 322.377 634.803 324.241 630.834 324.241ZM640.496 327.91L642.27 323.91H641.127V320.301H644.676V324.271L642.541 327.91H640.496ZM661.886 323.91V316.933H654.999V314.647H661.886V307.79H664.232V314.647H671.119V316.933H664.232V323.91H661.886ZM682.393 323.91V307.79H685.341V311.069C686.062 309.144 687.506 307.46 690.153 307.46C692.919 307.46 694.634 309.414 695.205 311.49C695.867 309.535 697.431 307.46 700.318 307.46C703.837 307.46 705.671 310.136 705.671 313.865V313.926V323.91H702.724V314.377V314.317C702.724 311.069 701.461 309.625 699.115 309.625C696.769 309.625 695.506 311.069 695.506 314.377V323.91H692.559V314.377V314.317C692.559 311.069 691.295 309.625 688.95 309.625C686.604 309.625 685.341 311.069 685.341 314.377V323.91H682.393ZM717.004 324.241C712.222 324.241 709.155 320.843 709.155 315.85C709.155 310.858 712.222 307.46 717.004 307.46C721.786 307.46 724.823 310.858 724.823 315.85C724.823 320.843 721.786 324.241 717.004 324.241ZM712.162 315.85C712.162 319.64 713.936 322.076 717.004 322.076C720.072 322.076 721.816 319.64 721.816 315.85C721.816 312.061 720.072 309.625 717.004 309.625C713.936 309.625 712.162 312.061 712.162 315.85ZM728.504 323.91V307.79H731.451V311.249C732.173 308.993 733.767 307.46 736.744 307.46V310.377H735.842C732.895 310.377 731.451 311.309 731.451 314.196V323.91H728.504ZM746.047 324.241C741.175 324.241 738.378 320.692 738.378 315.85C738.378 310.948 741.235 307.46 746.017 307.46C750.528 307.46 753.596 310.647 753.596 315.61C753.596 315.911 753.566 316.332 753.536 316.723H741.356C741.596 320.211 743.371 322.076 746.047 322.076C748.393 322.076 749.626 320.993 750.228 319.189H753.235C752.303 322.617 749.686 324.241 746.047 324.241ZM741.386 314.497H750.588C750.408 311.61 748.664 309.625 746.017 309.625C743.461 309.625 741.746 311.279 741.386 314.497Z" fill="black"/>
<g clip-path="url(#clip0_2014_3338)">
<path d="M606.122 112.937H598.201L576.856 171.41L576.838 179.509H584.76L606.122 120.988V112.937Z" fill="black"/>
<path d="M625.284 158.744L622.226 150.366H611.365H606.404V150.367L603.322 158.744H614.423L622.003 179.509H629.925L629.908 171.41L625.284 158.744Z" fill="black"/>
<path d="M226.435 143.041L216.621 139.465C213.958 138.474 211.978 137.239 210.673 135.753C209.372 134.274 208.719 132.284 208.719 129.776C208.719 126.986 209.69 124.692 211.629 122.885C213.567 121.086 216.071 120.179 219.14 120.179C222.497 120.179 225.176 121.185 227.171 123.19C229.17 125.203 230.168 127.772 230.168 130.912V131.957H239.284V130.912C239.284 127.192 238.446 123.891 236.769 121.01C235.088 118.128 232.729 115.895 229.69 114.294C226.652 112.693 223.135 111.893 219.14 111.893C215.32 111.893 211.917 112.678 208.935 114.248C205.954 115.819 203.624 117.999 201.948 120.797C200.267 123.586 199.429 126.758 199.429 130.302C199.429 134.259 200.499 137.781 202.642 140.86C204.781 143.94 208.344 146.387 213.321 148.186L222.092 151.243C224.929 152.348 227.027 153.713 228.389 155.344C229.747 156.968 230.43 159.125 230.43 161.801C230.43 163.714 229.963 165.46 229.038 167.03C228.112 168.601 226.826 169.843 225.176 170.743C223.526 171.642 221.686 172.092 219.66 172.092C216.363 172.092 213.67 171.093 211.587 169.081C209.501 167.076 208.461 164.446 208.461 161.191V160.139H199.429V161.016C199.429 164.797 200.267 168.151 201.948 171.093C203.624 174.028 206.014 176.308 209.11 177.939C212.206 179.57 215.722 180.378 219.66 180.378C223.598 180.378 227.084 179.578 230.126 177.985C233.165 176.384 235.521 174.127 237.202 171.223C238.882 168.311 239.72 164.972 239.72 161.191C239.72 157.059 238.692 153.438 236.636 150.328C234.584 147.218 231.181 144.786 226.435 143.041Z" fill="black"/>
<path d="M292.212 115.514C289.117 113.798 285.54 112.937 281.488 112.937H261.951V179.509H271.067V153.682H281.23C285.339 153.682 288.969 152.844 292.125 151.151C295.282 149.467 297.728 147.081 299.462 144.001C301.199 140.921 302.068 137.369 302.068 133.359C302.068 129.403 301.199 125.866 299.462 122.755C297.728 119.645 295.308 117.229 292.212 115.514ZM289.303 142.171C287.103 144.321 284.121 145.396 280.361 145.396H271.067V121.231H280.361C284.121 121.231 287.103 122.321 289.303 124.501C291.503 126.681 292.603 129.631 292.603 133.359C292.603 137.079 291.503 140.014 289.303 142.171Z" fill="black"/>
<path d="M324.557 112.937V179.509H333.673H364.412V171.223H333.673V150.282H358.335V141.905H333.673V121.231H364.412V112.937H333.673H324.557Z" fill="black"/>
<path d="M473.296 141.905V141.996H463.483V112.937H454.366V179.509H463.483V150.366H473.571L489.013 179.509H497.09V175.233L480.937 145.922L497.09 117.213V112.937H489.013L473.296 141.905Z" fill="black"/>
<path d="M518.276 112.937V179.509H527.392H558.131V171.223H527.392V150.282H552.055V141.905H527.392V121.231H558.131V112.937H527.392H518.276Z" fill="black"/>
<path d="M672.718 143.041L662.903 139.465C660.24 138.474 658.26 137.24 656.955 135.753C655.653 134.274 655.002 132.285 655.002 129.776C655.002 126.987 655.972 124.692 657.911 122.885C659.849 121.086 662.353 120.179 665.423 120.179C668.779 120.179 671.458 121.185 673.454 123.19C675.453 125.203 676.451 127.772 676.451 130.912V131.957H685.566V130.912C685.566 127.192 684.728 123.892 683.051 121.01C681.37 118.129 679.011 115.895 675.972 114.294C672.933 112.693 669.416 111.893 665.423 111.893C661.602 111.893 658.2 112.678 655.217 114.248C652.235 115.819 649.907 117.999 648.23 120.797C646.549 123.587 645.711 126.758 645.711 130.303C645.711 134.259 646.781 137.781 648.924 140.86C651.063 143.94 654.625 146.387 659.603 148.186L668.374 151.243C671.211 152.348 673.309 153.713 674.671 155.344C676.029 156.968 676.711 159.125 676.711 161.801C676.711 163.714 676.245 165.46 675.32 167.03C674.394 168.601 673.108 169.843 671.458 170.743C669.807 171.642 667.968 172.092 665.942 172.092C662.645 172.092 659.952 171.093 657.869 169.081C655.783 167.076 654.743 164.446 654.743 161.191V160.139H645.711V161.016C645.711 164.797 646.549 168.151 648.23 171.093C649.907 174.028 652.297 176.308 655.392 177.939C658.487 179.57 662.004 180.378 665.942 180.378C669.879 180.378 673.366 179.578 676.408 177.985C679.447 176.384 681.803 174.127 683.484 171.223C685.164 168.311 686.002 164.972 686.002 161.191C686.002 157.06 684.974 153.438 682.919 150.328C680.866 147.218 677.463 144.786 672.718 143.041Z" fill="black"/>
<path d="M741.754 112.937L728.988 140.601H727.476L714.748 112.937H706.584V117.038L723.689 152.638V179.509H732.896V152.379L749.914 117.13V112.937H741.754Z" fill="black"/>
<path d="M412.078 112.937H404.156L382.811 171.41L382.793 179.509H390.715L412.078 120.988V112.937Z" fill="black"/>
<path d="M431.238 158.744L428.18 150.366H417.319H412.358V150.367L409.276 158.744H420.377L427.957 179.509H435.879L435.861 171.41L431.238 158.744Z" fill="black"/>
</g>
<path fill-rule="evenodd" clip-rule="evenodd" d="M110.89 198.78C140.1 198.78 163.78 175.1 163.78 145.89C163.78 116.68 140.1 93 110.89 93C81.6797 93 58 116.68 58 145.89C58 175.1 81.6797 198.78 110.89 198.78ZM96.9186 151.028V156.553H102.691L113.189 128.648V122.938H107.449L96.9186 151.028ZM108.337 164.27V169.796H114.109L124.607 141.891V136.18H118.867L108.337 164.27Z" fill="black"/>
<defs>
<clipPath id="clip0_2014_3338">
<rect width="550.486" height="68.4856" fill="white" transform="translate(199.429 111.893)"/>
</clipPath>
</defs>
</svg>
