<svg width="1000" height="292" viewBox="0 0 1000 292" fill="none" xmlns="http://www.w3.org/2000/svg">
<g clip-path="url(#clip0_2437_2319)">
<path d="M738.791 1.89648H724.4L685.625 108.117L685.594 122.83H699.984L738.791 16.5215V1.89648Z" fill="#FBE331"/>
<path d="M773.597 85.1094L768.043 69.8906H748.314H739.302V69.8916L733.703 85.1094H753.868L767.638 122.831H782.029L781.998 108.119L773.597 85.1094Z" fill="#FBE331"/>
<path d="M49.0595 56.5824L31.2316 50.0878C26.3939 48.2876 22.7966 46.0443 20.426 43.3437C18.0622 40.6572 16.877 37.0431 16.877 32.487C16.877 27.4189 18.6411 23.2506 22.1625 19.9685C25.6841 16.7004 30.2323 15.0526 35.8075 15.0526C41.9062 15.0526 46.7716 16.8805 50.3963 20.5225C54.0282 24.1783 55.8406 28.8452 55.8406 34.5505V36.4476H72.4004V34.5505C72.4004 27.7927 70.8776 21.7966 67.8314 16.5621C64.7787 11.3276 60.4922 7.2701 54.9722 4.36204C49.4523 1.45398 43.064 0 35.8075 0C28.8678 0 22.6863 1.4263 17.2698 4.27908C11.8531 7.13167 7.6218 11.0921 4.5759 16.1745C1.52308 21.2426 0 27.0034 0 33.4426C0 40.6295 1.94341 47.0274 5.83697 52.6219C9.7237 58.2164 16.1947 62.6615 25.236 65.9296L41.1689 71.4827C46.3236 73.4905 50.1346 75.9693 52.6086 78.9329C55.0756 81.8825 56.3161 85.8014 56.3161 90.6621C56.3161 94.1378 55.4684 97.3089 53.787 100.162C52.1054 103.014 49.7692 105.271 46.7716 106.905C43.7738 108.54 40.4315 109.357 36.7516 109.357C30.7629 109.357 25.87 107.543 22.0867 103.887C18.2965 100.245 16.4084 95.4672 16.4084 89.5542V87.6432H1.5748e-05V89.2358C1.5748e-05 96.1043 1.5231 102.197 4.57591 107.543C7.6218 112.874 11.9634 117.014 17.5868 119.978C23.2101 122.941 29.5983 124.409 36.7516 124.409C43.9049 124.409 50.2379 122.955 55.7646 120.061C61.2848 117.153 65.5642 113.054 68.6173 107.778C71.67 102.488 73.193 96.4227 73.193 89.5542C73.193 82.0487 71.3256 75.4708 67.5904 69.821C63.862 64.171 57.6805 59.7536 49.0595 56.5824Z" fill="#FBE331"/>
<path d="M168.55 6.57715C162.928 3.46138 156.428 1.89648 149.069 1.89648H113.578V122.83H130.138V75.9132H148.6C156.063 75.9132 162.658 74.3901 168.392 71.3157C174.126 68.2554 178.57 63.9211 181.72 58.3266C184.876 52.732 186.453 46.2788 186.453 38.9948C186.453 31.8079 184.876 25.3826 181.72 19.7326C178.57 14.0826 174.173 9.69293 168.55 6.57715ZM163.264 55.0031C159.268 58.9082 153.851 60.8606 147.022 60.8606H130.138V16.963H147.022C153.851 16.963 159.268 18.9432 163.264 22.9037C167.261 26.8641 169.26 32.2233 169.26 38.9949C169.26 45.7528 167.261 51.0841 163.264 55.0031Z" fill="#FBE331"/>
<path d="M227.305 1.89648V122.83H243.864H299.705V107.777H243.864V69.7371H288.665V54.5184H243.864V16.963H299.705V1.89648H243.864H227.305Z" fill="#FBE331"/>
<path d="M497.501 54.5184V54.6846H479.674V1.89648H463.113V122.83H479.674V69.8894H498L526.052 122.83H540.724V115.061L511.381 61.8162L540.724 9.66515V1.89648H526.052L497.501 54.5184Z" fill="#FBE331"/>
<path d="M579.211 1.89648V122.83H595.77H651.611V107.777H595.77V69.7371H640.572V54.5184H595.77V16.963H651.611V1.89648H595.77H579.211Z" fill="#FBE331"/>
<path d="M859.767 56.5824L841.938 50.0878C837.101 48.2876 833.504 46.0443 831.132 43.3437C828.768 40.6572 827.584 37.0431 827.584 32.487C827.584 27.4189 829.348 23.2506 832.869 19.9685C836.39 16.7004 840.938 15.0526 846.515 15.0526C852.612 15.0526 857.479 16.8805 861.104 20.5225C864.735 24.1783 866.548 28.8452 866.548 34.5505V36.4476H883.107V34.5505C883.107 27.7927 881.584 21.7966 878.538 16.5621C875.485 11.3276 871.198 7.2701 865.679 4.36204C860.159 1.45398 853.77 0 846.515 0C839.575 0 833.394 1.4263 827.976 4.27908C822.559 7.13167 818.329 11.0921 815.283 16.1745C812.23 21.2426 810.707 27.0034 810.707 33.4426C810.707 40.6295 812.65 47.0274 816.543 52.6219C820.43 58.2164 826.901 62.6615 835.943 65.9296L851.875 71.4827C857.03 73.4905 860.841 75.9693 863.315 78.9329C865.782 81.8825 867.022 85.8014 867.022 90.6621C867.022 94.1378 866.175 97.3089 864.494 100.162C862.812 103.014 860.475 105.271 857.479 106.905C854.48 108.54 851.138 109.357 847.458 109.357C841.469 109.357 836.576 107.543 832.794 103.887C829.003 100.245 827.115 95.4672 827.115 89.5542V87.6432H810.707V89.2358C810.707 96.1043 812.23 102.197 815.283 107.543C818.329 112.874 822.671 117.014 828.293 119.978C833.916 122.941 840.305 124.409 847.458 124.409C854.611 124.409 860.945 122.955 866.471 120.061C871.992 117.153 876.271 113.054 879.324 107.778C882.376 102.488 883.899 96.4227 883.899 89.5542C883.899 82.0487 882.031 75.4708 878.297 69.821C874.568 64.171 868.387 59.7536 859.767 56.5824Z" fill="#FBE331"/>
<path d="M985.179 1.89648L961.988 52.1504H959.242L936.119 1.89648H921.289V9.34661L952.361 74.016V122.83H969.087V73.5453L1000 9.5129V1.89648H985.179Z" fill="#FBE331"/>
<path d="M386.29 1.89648H371.9L333.125 108.117L333.094 122.83H347.484L386.29 16.5215V1.89648Z" fill="#FBE331"/>
<path d="M421.099 85.1094L415.543 69.8906H395.814H386.802V69.8916L381.203 85.1094H401.37L415.139 122.831H429.531L429.498 108.119L421.099 85.1094Z" fill="#FBE331"/>
</g>
<path d="M58.9133 257.704C55.4999 257.704 52.4279 257.085 49.6973 255.848C46.9666 254.611 44.7266 252.84 42.9773 250.536C41.2706 248.232 40.1826 245.501 39.7133 242.344H46.4333C46.7319 244.477 47.4359 246.291 48.5453 247.784C49.6973 249.277 51.1479 250.408 52.8973 251.176C54.6893 251.901 56.6946 252.264 58.9133 252.264C61.7293 252.264 64.1186 251.901 66.0813 251.176C68.0866 250.451 69.6013 249.448 70.6253 248.168C71.6493 246.845 72.1613 245.331 72.1613 243.624C72.1613 241.917 71.7346 240.573 70.8813 239.592C70.0706 238.568 68.8759 237.757 67.2973 237.16C65.7186 236.563 63.4359 235.944 60.4493 235.304L54.3693 233.96C50.3159 233.064 47.1159 231.571 44.7693 229.48C42.4226 227.389 41.2493 224.616 41.2493 221.16C41.2493 218.643 42.0173 216.36 43.5533 214.312C45.1319 212.221 47.2439 210.6 49.8893 209.448C52.5773 208.253 55.5426 207.656 58.7853 207.656C62.1559 207.656 65.1639 208.211 67.8093 209.32C70.4546 210.429 72.5879 212.008 74.2093 214.056C75.8733 216.061 76.9399 218.387 77.4093 221.032H70.6893C69.9639 218.344 68.5559 216.36 66.4653 215.08C64.4173 213.757 61.8573 213.096 58.7853 213.096C56.7373 213.096 54.8813 213.416 53.2173 214.056C51.5533 214.653 50.2306 215.528 49.2493 216.68C48.2679 217.789 47.7773 219.069 47.7773 220.52C47.7773 222.056 48.1399 223.293 48.8653 224.232C49.5906 225.128 50.6786 225.896 52.1293 226.536C53.6226 227.133 55.7133 227.731 58.4013 228.328L64.4813 229.672C67.8519 230.397 70.5613 231.315 72.6093 232.424C74.6573 233.533 76.1719 234.941 77.1533 236.648C78.1773 238.312 78.6893 240.403 78.6893 242.92C78.6893 245.779 77.8573 248.339 76.1933 250.6C74.5719 252.819 72.2679 254.568 69.2812 255.848C66.2946 257.085 62.8386 257.704 58.9133 257.704ZM87.6738 208.36H104.25C109.114 208.36 113.359 209.299 116.986 211.176C120.612 213.053 123.407 215.827 125.37 219.496C127.375 223.123 128.378 227.517 128.378 232.68C128.378 237.843 127.375 242.259 125.37 245.928C123.407 249.555 120.612 252.307 116.986 254.184C113.359 256.061 109.114 257 104.25 257H87.6738V208.36ZM104.442 251.24C108.068 251.24 111.162 250.536 113.722 249.128C116.324 247.677 118.287 245.565 119.61 242.792C120.975 240.019 121.658 236.648 121.658 232.68C121.658 228.755 120.975 225.405 119.61 222.632C118.287 219.859 116.324 217.747 113.722 216.296C111.162 214.845 108.068 214.12 104.442 214.12H94.1378V251.24H104.442ZM144.2 232.104V257H137.736V208.36H144.2V230.824L166.152 208.36H174.536L152.008 231.4L176.968 257H168.392L144.2 232.104ZM192.677 257.704C190.117 257.704 187.792 257.299 185.701 256.488C183.611 255.635 181.904 254.419 180.581 252.84C179.259 251.219 178.448 249.256 178.149 246.952H184.549C184.976 249.171 185.936 250.749 187.429 251.688C188.923 252.627 190.672 253.096 192.677 253.096C195.323 253.096 197.328 252.648 198.693 251.752C200.101 250.813 200.805 249.533 200.805 247.912C200.805 246.888 200.571 246.035 200.101 245.352C199.675 244.627 198.971 244.029 197.989 243.56C197.008 243.091 195.643 242.664 193.893 242.28L189.093 241.256C185.936 240.573 183.461 239.507 181.669 238.056C179.92 236.563 179.045 234.557 179.045 232.04C179.045 230.077 179.643 228.328 180.837 226.792C182.032 225.256 183.653 224.083 185.701 223.272C187.792 222.419 190.075 221.992 192.549 221.992C194.811 221.992 196.901 222.355 198.821 223.08C200.741 223.763 202.363 224.808 203.685 226.216C205.008 227.581 205.925 229.267 206.437 231.272H200.037C199.568 229.821 198.629 228.691 197.221 227.88C195.856 227.027 194.299 226.6 192.549 226.6C191.269 226.6 190.075 226.792 188.965 227.176C187.856 227.56 186.96 228.115 186.277 228.84C185.595 229.565 185.253 230.419 185.253 231.4C185.253 232.296 185.488 233.043 185.957 233.64C186.469 234.195 187.195 234.664 188.133 235.048C189.115 235.389 190.437 235.731 192.101 236.072L196.901 237.096C200.443 237.864 203.003 239.059 204.581 240.68C206.203 242.301 207.013 244.456 207.013 247.144C207.013 249.32 206.395 251.197 205.157 252.776C203.963 254.355 202.277 255.571 200.101 256.424C197.968 257.277 195.493 257.704 192.677 257.704Z" fill="#FBE331"/>
<path d="M371.25 214.12H355.058V208.36H393.906V214.12H377.714V257H371.25V214.12ZM406.419 257.704C403.048 257.704 400.125 256.936 397.651 255.4C395.219 253.864 393.341 251.752 392.019 249.064C390.739 246.376 390.099 243.304 390.099 239.848C390.099 236.349 390.739 233.256 392.019 230.568C393.341 227.88 395.219 225.789 397.651 224.296C400.125 222.76 403.027 221.992 406.355 221.992C409.555 221.992 412.371 222.717 414.803 224.168C417.235 225.576 419.112 227.603 420.435 230.248C421.8 232.851 422.483 235.88 422.483 239.336C422.483 239.805 422.44 240.595 422.355 241.704H396.435C396.691 245.373 397.693 248.189 399.443 250.152C401.192 252.115 403.517 253.096 406.419 253.096C408.808 253.096 410.707 252.584 412.115 251.56C413.565 250.493 414.632 248.957 415.315 246.952H421.715C420.733 250.536 418.92 253.224 416.275 255.016C413.672 256.808 410.387 257.704 406.419 257.704ZM416.083 236.968C415.955 234.92 415.464 233.128 414.611 231.592C413.8 230.013 412.669 228.797 411.219 227.944C409.811 227.048 408.189 226.6 406.355 226.6C403.581 226.6 401.341 227.496 399.635 229.288C397.928 231.037 396.883 233.597 396.499 236.968H416.083ZM430.273 222.696H436.545V230.056C438.252 224.68 442.007 221.992 447.809 221.992V228.2H445.889C443.713 228.2 441.943 228.456 440.577 228.968C439.255 229.48 438.252 230.333 437.569 231.528C436.887 232.723 436.545 234.323 436.545 236.328V257H430.273V222.696ZM454.148 222.696H460.42V230.056C462.127 224.68 465.882 221.992 471.684 221.992V228.2H469.764C467.588 228.2 465.818 228.456 464.452 228.968C463.13 229.48 462.127 230.333 461.444 231.528C460.762 232.723 460.42 234.323 460.42 236.328V257H454.148V222.696ZM486.873 257.704C484.74 257.704 482.799 257.235 481.049 256.296C479.3 255.315 477.913 253.992 476.889 252.328C475.865 250.664 475.353 248.787 475.353 246.696C475.353 244.221 476.057 242.28 477.465 240.872C478.873 239.421 480.58 238.397 482.585 237.8C484.591 237.203 486.895 236.776 489.497 236.52L498.713 235.56V234.984V234.856C498.713 233.32 498.415 231.933 497.817 230.696C497.263 229.416 496.388 228.413 495.193 227.688C493.999 226.963 492.527 226.6 490.777 226.6C489.241 226.6 487.897 226.877 486.745 227.432C485.593 227.987 484.697 228.755 484.057 229.736C483.417 230.675 483.012 231.699 482.841 232.808H476.441C476.697 230.675 477.444 228.797 478.681 227.176C479.961 225.512 481.625 224.232 483.673 223.336C485.764 222.44 488.132 221.992 490.777 221.992C494.063 221.992 496.772 222.611 498.905 223.848C501.039 225.043 502.575 226.621 503.513 228.584C504.495 230.504 504.985 232.616 504.985 234.92V235.048V257H498.713V249.96C497.86 251.709 496.943 253.139 495.961 254.248C494.98 255.357 493.743 256.211 492.249 256.808C490.799 257.405 489.007 257.704 486.873 257.704ZM481.753 246.696C481.753 248.104 482.073 249.341 482.713 250.408C483.396 251.432 484.292 252.221 485.401 252.776C486.553 253.288 487.812 253.544 489.177 253.544C491.225 253.544 492.953 253.053 494.361 252.072C495.812 251.091 496.9 249.768 497.625 248.104C498.351 246.397 498.713 244.499 498.713 242.408V239.848L491.865 240.552C489.732 240.765 487.983 241.043 486.617 241.384C485.295 241.683 484.143 242.259 483.161 243.112C482.223 243.965 481.753 245.16 481.753 246.696ZM517.222 217.896C517.222 214.739 518.203 212.371 520.166 210.792C522.128 209.171 524.688 208.36 527.846 208.36H532.326V213.096H528.486C526.822 213.096 525.563 213.459 524.71 214.184C523.899 214.867 523.494 216.104 523.494 217.896V222.696H532.326V227.432H523.494V257H517.222V227.432H510.118V222.696H517.222V217.896ZM551.614 257.704C548.286 257.704 545.342 256.957 542.782 255.464C540.264 253.971 538.323 251.88 536.958 249.192C535.592 246.461 534.91 243.347 534.91 239.848C534.91 236.349 535.592 233.256 536.958 230.568C538.323 227.837 540.264 225.725 542.782 224.232C545.342 222.739 548.286 221.992 551.614 221.992C554.942 221.992 557.864 222.739 560.382 224.232C562.899 225.725 564.84 227.816 566.206 230.504C567.571 233.192 568.254 236.307 568.254 239.848C568.254 243.389 567.571 246.504 566.206 249.192C564.84 251.88 562.899 253.971 560.382 255.464C557.864 256.957 554.942 257.704 551.614 257.704ZM541.31 239.848C541.31 242.536 541.715 244.883 542.526 246.888C543.336 248.851 544.51 250.387 546.046 251.496C547.624 252.563 549.48 253.096 551.614 253.096C553.747 253.096 555.582 252.563 557.118 251.496C558.654 250.387 559.827 248.851 560.638 246.888C561.448 244.883 561.854 242.536 561.854 239.848C561.854 237.16 561.448 234.835 560.638 232.872C559.827 230.867 558.654 229.331 557.118 228.264C555.582 227.155 553.747 226.6 551.614 226.6C549.48 226.6 547.624 227.155 546.046 228.264C544.51 229.331 543.336 230.867 542.526 232.872C541.715 234.835 541.31 237.16 541.31 239.848ZM576.086 222.696H582.358V230.056C584.064 224.68 587.819 221.992 593.622 221.992V228.2H591.702C589.526 228.2 587.755 228.456 586.39 228.968C585.067 229.48 584.064 230.333 583.382 231.528C582.699 232.723 582.358 234.323 582.358 236.328V257H576.086V222.696ZM599.961 222.696H606.233V229.672C607.086 227.368 608.345 225.512 610.009 224.104C611.715 222.696 613.87 221.992 616.473 221.992C618.35 221.992 620.014 222.397 621.465 223.208C622.958 223.976 624.174 225.021 625.113 226.344C626.094 227.624 626.798 229.032 627.225 230.568C628.035 228.136 629.337 226.109 631.129 224.488C632.963 222.824 635.289 221.992 638.105 221.992C640.537 221.992 642.606 222.568 644.313 223.72C646.019 224.872 647.299 226.472 648.153 228.52C649.049 230.568 649.497 232.936 649.497 235.624V235.752V257H643.225V236.712V236.584C643.225 233.171 642.563 230.653 641.241 229.032C639.961 227.411 638.062 226.6 635.545 226.6C632.985 226.6 631.065 227.432 629.785 229.096C628.505 230.717 627.865 233.256 627.865 236.712V257H621.593V236.712V236.584C621.593 233.171 620.931 230.653 619.609 229.032C618.329 227.411 616.43 226.6 613.913 226.6C611.353 226.6 609.433 227.432 608.153 229.096C606.873 230.717 606.233 233.256 606.233 236.712V257H599.961V222.696Z" fill="#FBE331"/>
<path d="M801.33 208.36H817.906C822.77 208.36 827.015 209.299 830.642 211.176C834.269 213.053 837.063 215.827 839.026 219.496C841.031 223.123 842.034 227.517 842.034 232.68C842.034 237.843 841.031 242.259 839.026 245.928C837.063 249.555 834.269 252.307 830.642 254.184C827.015 256.061 822.77 257 817.906 257H801.33V208.36ZM818.098 251.24C821.725 251.24 824.818 250.536 827.378 249.128C829.981 247.677 831.943 245.565 833.266 242.792C834.631 240.019 835.314 236.648 835.314 232.68C835.314 228.755 834.631 225.405 833.266 222.632C831.943 219.859 829.981 217.747 827.378 216.296C824.818 214.845 821.725 214.12 818.098 214.12H807.794V251.24H818.098ZM864.833 257.704C861.505 257.704 858.561 256.957 856.001 255.464C853.483 253.971 851.542 251.88 850.177 249.192C848.811 246.461 848.129 243.347 848.129 239.848C848.129 236.349 848.811 233.256 850.177 230.568C851.542 227.837 853.483 225.725 856.001 224.232C858.561 222.739 861.505 221.992 864.833 221.992C868.161 221.992 871.083 222.739 873.601 224.232C876.118 225.725 878.059 227.816 879.425 230.504C880.79 233.192 881.472 236.307 881.472 239.848C881.472 243.389 880.79 246.504 879.425 249.192C878.059 251.88 876.118 253.971 873.601 255.464C871.083 256.957 868.161 257.704 864.833 257.704ZM854.529 239.848C854.529 242.536 854.934 244.883 855.745 246.888C856.555 248.851 857.729 250.387 859.265 251.496C860.843 252.563 862.699 253.096 864.833 253.096C866.966 253.096 868.801 252.563 870.337 251.496C871.873 250.387 873.046 248.851 873.857 246.888C874.667 244.883 875.073 242.536 875.073 239.848C875.073 237.16 874.667 234.835 873.857 232.872C873.046 230.867 871.873 229.331 870.337 228.264C868.801 227.155 866.966 226.6 864.833 226.6C862.699 226.6 860.843 227.155 859.265 228.264C857.729 229.331 856.555 230.867 855.745 232.872C854.934 234.835 854.529 237.16 854.529 239.848ZM903.833 257.704C900.505 257.704 897.561 256.957 895.001 255.464C892.483 253.971 890.542 251.88 889.177 249.192C887.811 246.461 887.129 243.347 887.129 239.848C887.129 236.349 887.811 233.256 889.177 230.568C890.542 227.837 892.483 225.725 895.001 224.232C897.561 222.739 900.505 221.992 903.833 221.992C906.606 221.992 909.059 222.525 911.193 223.592C913.369 224.616 915.139 226.067 916.505 227.944C917.87 229.779 918.809 231.912 919.321 234.344H912.921C912.409 232.083 911.385 230.227 909.849 228.776C908.313 227.325 906.307 226.6 903.833 226.6C901.699 226.6 899.843 227.155 898.265 228.264C896.729 229.331 895.555 230.867 894.745 232.872C893.934 234.835 893.529 237.16 893.529 239.848C893.529 242.536 893.934 244.883 894.745 246.888C895.555 248.851 896.729 250.387 898.265 251.496C899.843 252.563 901.699 253.096 903.833 253.096C908.697 253.096 911.854 250.579 913.305 245.544H919.705C919.107 248.104 918.062 250.301 916.569 252.136C915.075 253.971 913.219 255.357 911.001 256.296C908.825 257.235 906.435 257.704 903.833 257.704ZM938.708 257.704C936.149 257.704 933.823 257.299 931.733 256.488C929.642 255.635 927.935 254.419 926.613 252.84C925.29 251.219 924.479 249.256 924.181 246.952H930.581C931.007 249.171 931.967 250.749 933.461 251.688C934.954 252.627 936.703 253.096 938.708 253.096C941.354 253.096 943.359 252.648 944.725 251.752C946.133 250.813 946.837 249.533 946.837 247.912C946.837 246.888 946.602 246.035 946.133 245.352C945.706 244.627 945.002 244.029 944.021 243.56C943.039 243.091 941.674 242.664 939.925 242.28L935.125 241.256C931.967 240.573 929.493 239.507 927.701 238.056C925.951 236.563 925.077 234.557 925.077 232.04C925.077 230.077 925.674 228.328 926.869 226.792C928.063 225.256 929.685 224.083 931.733 223.272C933.823 222.419 936.106 221.992 938.581 221.992C940.842 221.992 942.933 222.355 944.853 223.08C946.773 223.763 948.394 224.808 949.717 226.216C951.039 227.581 951.957 229.267 952.469 231.272H946.069C945.599 229.821 944.661 228.691 943.253 227.88C941.887 227.027 940.33 226.6 938.581 226.6C937.301 226.6 936.106 226.792 934.997 227.176C933.887 227.56 932.991 228.115 932.309 228.84C931.626 229.565 931.285 230.419 931.285 231.4C931.285 232.296 931.519 233.043 931.989 233.64C932.501 234.195 933.226 234.664 934.165 235.048C935.146 235.389 936.469 235.731 938.133 236.072L942.933 237.096C946.474 237.864 949.034 239.059 950.613 240.68C952.234 242.301 953.045 244.456 953.045 247.144C953.045 249.32 952.426 251.197 951.189 252.776C949.994 254.355 948.309 255.571 946.133 256.424C943.999 257.277 941.525 257.704 938.708 257.704Z" fill="#FBE331"/>
<path d="M313.528 172H293.579L257.028 272.224L257 292H277.003L313.528 192.363V172Z" fill="#FBE331"/>
<path d="M750.528 172H730.579L694.028 272.224L694 292H714.003L750.528 192.363V172Z" fill="#FBE331"/>
<defs>
<clipPath id="clip0_2437_2319">
<rect width="1000" height="124.409" fill="white"/>
</clipPath>
</defs>
</svg>
